<svg width="18" height="19" viewBox="0 0 18 19" fill="none" xmlns="http://www.w3.org/2000/svg">
<path d="M8.03104 14.0794C8.10077 14.1554 8.15609 14.2456 8.19384 14.345C8.23158 14.4443 8.25101 14.5507 8.25101 14.6583C8.25101 14.7658 8.23158 14.8722 8.19384 14.9715C8.15609 15.0709 8.10077 15.1611 8.03104 15.2371L5.03104 18.5096C4.96139 18.5856 4.87867 18.646 4.78762 18.6872C4.69657 18.7283 4.59898 18.7495 4.50042 18.7495C4.40186 18.7495 4.30426 18.7283 4.21321 18.6872C4.12216 18.646 4.03945 18.5856 3.96979 18.5096L0.969792 15.2371C0.900109 15.1611 0.844834 15.0708 0.807122 14.9715C0.76941 14.8722 0.75 14.7657 0.75 14.6583C0.75 14.5508 0.76941 14.4443 0.807122 14.345C0.844834 14.2457 0.900109 14.1554 0.969792 14.0794C1.11052 13.9259 1.30139 13.8397 1.50042 13.8397C1.59896 13.8397 1.69654 13.8608 1.78759 13.902C1.87863 13.9431 1.96136 14.0034 2.03104 14.0794L3.75042 15.956V1.56828C3.75042 1.3513 3.82943 1.14321 3.97009 0.989778C4.11074 0.83635 4.3015 0.750155 4.50042 0.750155C4.69933 0.750155 4.89009 0.83635 5.03075 0.989778C5.1714 1.14321 5.25042 1.3513 5.25042 1.56828V15.956L6.96979 14.0794C7.03945 14.0034 7.12216 13.943 7.21321 13.9018C7.30426 13.8607 7.40185 13.8395 7.50042 13.8395C7.59898 13.8395 7.69657 13.8607 7.78762 13.9018C7.87867 13.943 7.96139 14.0034 8.03104 14.0794ZM17.031 4.26195L14.031 0.989457C13.9614 0.91339 13.8787 0.853046 13.7876 0.811875C13.6966 0.770703 13.599 0.749512 13.5004 0.749512C13.4019 0.749512 13.3043 0.770703 13.2132 0.811875C13.1222 0.853046 13.0394 0.91339 12.9698 0.989457L9.96979 4.26195C9.82906 4.41546 9.75 4.62367 9.75 4.84077C9.75 5.05787 9.82906 5.26608 9.96979 5.4196C10.1105 5.57311 10.3014 5.65935 10.5004 5.65935C10.6994 5.65935 10.8903 5.57311 11.031 5.4196L12.7504 3.54302V17.9307C12.7504 18.1477 12.8294 18.3558 12.9701 18.5092C13.1107 18.6627 13.3015 18.7489 13.5004 18.7489C13.6993 18.7489 13.8901 18.6627 14.0307 18.5092C14.1714 18.3558 14.2504 18.1477 14.2504 17.9307V3.54302L15.9698 5.4196C16.1105 5.57311 16.3014 5.65935 16.5004 5.65935C16.6994 5.65935 16.8903 5.57311 17.031 5.4196C17.1718 5.26608 17.2508 5.05787 17.2508 4.84077C17.2508 4.62367 17.1718 4.41546 17.031 4.26195Z" fill="#057CC1"/>
</svg>
