<svg  aria-hidden="true" role="img" width="32" height="32" viewBox="0 0 32 32" fill="none" xmlns="http://www.w3.org/2000/svg">
<path d="M22.2962 23.1327C22.5243 21.9152 22.7296 20.8585 22.9121 19.9626C23.0946 19.0438 23.2543 18.1938 23.3911 17.4128C23.528 16.6318 23.6535 15.8622 23.7675 15.1042C23.9044 14.3232 24.0413 13.4617 24.1782 12.5199C24.3378 11.5551 24.5089 10.464 24.6914 9.24651C24.8967 8.00606 25.1363 6.52441 25.41 4.80156C25.4785 4.36511 25.5925 4.08945 25.7522 3.9746C25.9119 3.83677 26.3111 3.76785 26.9498 3.76785C27.2008 3.76785 27.5772 3.79083 28.079 3.83677C28.5809 3.85974 29.0828 3.96311 29.5847 4.14688C30.0865 4.30768 30.52 4.57185 30.8849 4.93939C31.2728 5.28396 31.4667 5.77784 31.4667 6.42104C31.4667 6.78858 31.3982 7.36286 31.2613 8.14388C31.1245 8.90194 30.9306 9.78633 30.6796 10.7971C30.4515 11.7848 30.1778 12.8645 29.8584 14.036C29.5618 15.2076 29.2539 16.3906 28.9345 17.5851C28.6151 18.7796 28.2844 19.9396 27.9422 21.0652C27.6228 22.1908 27.3148 23.213 27.0183 24.1319C26.7445 25.0278 26.4936 25.7858 26.2655 26.4061C26.0374 27.0263 25.8777 27.4283 25.7864 27.6121C25.6495 27.8647 25.4556 28.037 25.2047 28.1289C24.9538 28.2208 24.7028 28.2667 24.4519 28.2667H21.2012C20.6081 28.2667 20.1062 28.1519 19.6956 27.9222C19.3078 27.6924 18.977 27.3938 18.7032 27.0263C18.4523 26.6587 18.247 26.2453 18.0873 25.7858C17.9504 25.3264 17.8592 24.8555 17.8136 24.3731L16.1026 8.90194C15.9658 9.91267 15.8061 11.0498 15.6236 12.3132C15.4639 13.5766 15.2814 14.863 15.0761 16.1723C14.8936 17.4817 14.7111 18.7681 14.5286 20.0315C14.3461 21.2949 14.1636 22.455 13.9811 23.5117C13.7986 24.5454 13.6275 25.4298 13.4678 26.1649C13.3082 26.8999 13.1713 27.3823 13.0572 27.6121C12.9432 27.8647 12.7607 28.037 12.5097 28.1289C12.2588 28.2208 11.9965 28.2667 11.7227 28.2667H8.47197C7.90166 28.2667 7.42261 28.1634 7.0348 27.9566C6.6698 27.7269 6.36184 27.4283 6.11091 27.0607C5.85997 26.6932 5.65466 26.2797 5.49498 25.8203C5.33529 25.3379 5.19842 24.8555 5.08436 24.3731C4.14906 20.6288 3.38485 17.5506 2.79173 15.1386C2.22143 12.7267 1.76518 10.7971 1.423 9.34988C1.08082 7.87971 0.84129 6.81155 0.704417 6.14538C0.590356 5.45624 0.533325 4.96236 0.533325 4.66373C0.533325 4.27322 0.647386 4.02054 0.875508 3.90568C1.12644 3.79083 1.63972 3.7334 2.41533 3.7334C3.37344 3.7334 4.17187 3.80231 4.81061 3.94014C5.47216 4.07797 6.00825 4.29619 6.41887 4.59482C6.82949 4.87048 7.13745 5.2495 7.34276 5.7319C7.57089 6.19133 7.71917 6.75412 7.7876 7.42029C7.7876 7.51217 7.79901 7.65 7.82182 7.83377C7.84463 7.99457 7.86744 8.27023 7.89026 8.66074C7.93588 9.05125 7.99291 9.59108 8.06135 10.2802C8.1526 10.9464 8.25525 11.8423 8.36931 12.9679C8.50619 14.0934 8.66587 15.4947 8.84837 17.1716C9.05368 18.8255 9.29321 20.8125 9.56695 23.1327C9.81789 21.7314 10.0118 20.6058 10.1487 19.7559C10.3083 18.883 10.4452 18.1249 10.5593 17.4817C10.6733 16.8155 10.776 16.1838 10.8672 15.5866C10.9585 14.9664 11.0612 14.2083 11.1752 13.3124C11.3121 12.3936 11.4604 11.245 11.62 9.86673C11.8025 8.48845 12.0307 6.69669 12.3044 4.49145C12.3272 4.33065 12.4185 4.20431 12.5782 4.11242C12.7607 4.02054 12.9774 3.95162 13.2283 3.90568C13.4792 3.85974 13.753 3.83677 14.0495 3.83677C14.3689 3.8138 14.6655 3.80231 14.9392 3.80231C15.8517 3.80231 16.6273 3.85974 17.2661 3.9746C17.9048 4.06648 18.4295 4.23877 18.8401 4.49145C19.2735 4.74413 19.6157 5.0887 19.8667 5.52516C20.1176 5.93864 20.3229 6.4555 20.4826 7.07572C20.551 7.37435 20.6309 7.78783 20.7221 8.31617C20.8134 8.82154 20.916 9.63702 21.0301 10.7626C21.167 11.8882 21.3266 13.4388 21.5091 15.4143C21.7144 17.3669 21.9768 19.9396 22.2962 23.1327Z" fill="#48C010"/>
</svg>
