<svg width="101" height="101" viewBox="0 0 101 101" fill="none" xmlns="http://www.w3.org/2000/svg">
<g id="icon" opacity="0.9">
<path id="Icon" fill-rule="evenodd" clip-rule="evenodd" d="M95.6351 20.4829C96.7165 21.6873 96.6959 23.6205 95.5872 24.8027L38.8183 86.9119L13.1363 58.7807C12.0345 57.591 12.0277 55.6579 13.1227 54.4608L18.803 48.2376C19.8912 47.0406 21.6705 47.0331 22.7724 48.2153L38.8867 66.0489L86.0196 14.163C87.1352 12.9882 88.8598 13.0192 89.948 14.2237L95.6351 20.4829Z" fill="#79D94C"/>
<g id="Vector">
<path d="M35.5632 41.6165L67.878 50.2752L66.6579 54.8286L65.4378 59.3821L33.123 50.7233L35.5632 41.6165Z" fill="white"/>
<path d="M71.5383 36.615C72.2121 34.1002 74.7312 32.5902 77.1649 33.2423C79.5986 33.8944 81.0252 36.4617 80.3514 38.9764L70.5907 75.4038C69.9169 77.9186 67.3978 79.4286 64.9641 78.7765C62.5304 78.1244 61.1038 75.5571 61.7776 73.0423L66.6579 54.8286L71.5383 36.615Z" fill="white"/>
<path d="M30.4103 25.5948C31.0841 23.08 33.6033 21.57 36.037 22.2221C38.4706 22.8742 39.8973 25.4415 39.2234 27.9562L29.4628 64.3836C28.7889 66.8984 26.2698 68.4084 23.8361 67.7563C21.4024 67.1042 19.9758 64.5369 20.6496 62.0221L30.4103 25.5948Z" fill="white"/>
<path d="M78.7246 45.0477C79.3985 42.5329 81.9176 41.0229 84.3513 41.675C86.7849 42.3271 88.2116 44.8944 87.5378 47.4091L81.0306 71.694C80.3568 74.2088 77.8377 75.7188 75.404 75.0667C72.9703 74.4146 71.5437 71.8473 72.2175 69.3326L78.7246 45.0477Z" fill="white"/>
<path d="M19.9704 29.3045C20.6442 26.7897 23.1634 25.2797 25.597 25.9318C28.0307 26.5839 29.4574 29.1512 28.7835 31.666L22.2764 55.9509C21.6026 58.4657 19.0834 59.9757 16.6498 59.3236C14.2161 58.6715 12.7894 56.1042 13.4633 53.5894L19.9704 29.3045Z" fill="white"/>
<path d="M84.2842 59.5516C84.958 57.0368 87.4772 55.5268 89.9108 56.1789L92.8486 56.9661C95.2822 57.6182 96.7089 60.1854 96.035 62.7002C95.3612 65.215 92.8421 66.725 90.4084 66.0729L87.4707 65.2857C85.037 64.6336 83.6104 62.0664 84.2842 59.5516Z" fill="white"/>
<path d="M4.96598 38.2983C5.63982 35.7836 8.15896 34.2736 10.5926 34.9257L13.5303 35.7128C15.964 36.3649 17.3907 38.9322 16.7168 41.447C16.043 43.9618 13.5239 45.4718 11.0902 44.8196L8.15247 44.0325C5.71879 43.3804 4.29215 40.8131 4.96598 38.2983Z" fill="white"/>
<path d="M66.6579 54.8286L61.7776 73.0423C61.1038 75.5571 62.5304 78.1244 64.9641 78.7765C67.3977 79.4286 69.9169 77.9186 70.5907 75.4038L80.3514 38.9764C81.0252 36.4617 79.5986 33.8944 77.1649 33.2423C74.7312 32.5902 72.2121 34.1002 71.5383 36.615L66.6579 54.8286ZM66.6579 54.8286L67.878 50.2752L35.5632 41.6165L33.123 50.7233L65.4378 59.3821L66.6579 54.8286ZM23.8361 67.7563C21.4024 67.1042 19.9758 64.5369 20.6496 62.0221L30.4103 25.5948C31.0841 23.08 33.6033 21.57 36.037 22.2221C38.4706 22.8742 39.8973 25.4415 39.2234 27.9562L29.4628 64.3836C28.7889 66.8984 26.2698 68.4084 23.8361 67.7563ZM75.404 75.0667C72.9703 74.4146 71.5437 71.8473 72.2175 69.3326L78.7246 45.0477C79.3985 42.5329 81.9176 41.0229 84.3513 41.675C86.7849 42.3271 88.2116 44.8944 87.5378 47.4091L81.0306 71.694C80.3568 74.2088 77.8377 75.7188 75.404 75.0667ZM16.6498 59.3236C14.2161 58.6715 12.7894 56.1042 13.4633 53.5894L19.9704 29.3045C20.6442 26.7897 23.1634 25.2797 25.597 25.9318C28.0307 26.5839 29.4574 29.1512 28.7835 31.666L22.2764 55.9509C21.6026 58.4657 19.0834 59.9757 16.6498 59.3236ZM87.4707 65.2857L90.4084 66.0729C92.8421 66.725 95.3612 65.215 96.035 62.7002C96.7089 60.1854 95.2822 57.6182 92.8486 56.9661L89.9108 56.1789C87.4772 55.5268 84.958 57.0368 84.2842 59.5516C83.6104 62.0664 85.037 64.6336 87.4707 65.2857ZM8.15247 44.0325L11.0902 44.8196C13.5239 45.4718 16.043 43.9618 16.7168 41.447C17.3907 38.9322 15.964 36.3649 13.5303 35.7128L10.5926 34.9257C8.15896 34.2736 5.63982 35.7836 4.96598 38.2983C4.29215 40.8131 5.71879 43.3804 8.15247 44.0325Z" stroke="#192024" stroke-width="3" stroke-linejoin="round"/>
</g>
<path id="Icon_2" fill-rule="evenodd" clip-rule="evenodd" d="M63.0001 60.523L38.8183 86.9116L13.1363 58.7804C12.0345 57.5908 12.0277 55.6577 13.1227 54.4606L18.803 48.2374C19.8912 47.0403 21.6705 47.0329 22.7724 48.2151L38.8867 66.0487L47.0279 56.3558C47.0041 56.3295 47.0069 56.3325 47.0279 56.3558L63.0001 60.523Z" fill="#79D94C"/>
</g>
</svg>
