<svg width="25" height="25" viewBox="0 0 25 25" fill="none" xmlns="http://www.w3.org/2000/svg">
<g clip-path="url(#clip0_387_1257)">
<rect width="24" height="24" transform="translate(0.666992 0.140625)" fill="white"/>
<path d="M18.6669 10.6407V6.14067C18.6669 2.83309 15.9762 0.140625 12.667 0.140625C9.35873 0.140625 6.66706 2.83309 6.66706 6.14067V10.6407C5.01015 10.6407 3.66699 11.984 3.66699 13.6405V21.1406C3.66699 22.7976 5.01015 24.1406 6.66706 24.1406H18.6669C20.3235 24.1406 21.667 22.7976 21.667 21.1406V13.6405C21.6671 11.984 20.3235 10.6407 18.6669 10.6407ZM13.4171 17.9105V20.3905C13.4171 20.8051 13.0816 21.1406 12.667 21.1406C12.2524 21.1406 11.917 20.8051 11.917 20.3905V17.9105C11.4768 17.6499 11.1671 17.1898 11.1671 16.6407C11.1671 15.8114 11.8387 15.1406 12.667 15.1406C13.4953 15.1406 14.167 15.8114 14.167 16.6407C14.1671 17.1898 13.857 17.65 13.4171 17.9105ZM15.6669 10.6407H9.66703V6.14067C9.66703 4.4854 11.0124 3.1406 12.667 3.1406C14.3208 3.1406 15.6668 4.4854 15.6668 6.14067V10.6407H15.6669Z" fill="#363D29"/>
</g>
<defs>
<clipPath id="clip0_387_1257">
<rect width="24" height="24" fill="white" transform="translate(0.666992 0.140625)"/>
</clipPath>
</defs>
</svg>
