<svg width="86" height="48" viewBox="0 0 86 48" fill="none" xmlns="http://www.w3.org/2000/svg">
<path d="M37.0416 12.833H39.375V15.1663H37.0416V12.833ZM37.0416 17.4997H39.375V19.833H37.0416V17.4997ZM41.7083 12.833H44.0416V15.1663H41.7083V12.833ZM41.7083 17.4997H44.0416V19.833H41.7083V17.4997ZM46.375 12.833H48.7083V15.1663H46.375V12.833ZM46.375 17.4997H48.7083V19.833H46.375V17.4997Z" fill="#0068A5"/>
<path d="M34.7083 25.6663H51.0417C52.3285 25.6663 53.375 24.6198 53.375 23.333V6.99967C53.375 5.71284 52.3285 4.66634 51.0417 4.66634H48.7083V2.33301H46.375V4.66634H39.375V2.33301H37.0417V4.66634H34.7083C33.4215 4.66634 32.375 5.71284 32.375 6.99967V23.333C32.375 24.6198 33.4215 25.6663 34.7083 25.6663ZM51.0417 9.33301L51.0428 23.333H34.7083V9.33301H51.0417Z" fill="#0068A5"/>
<path d="M26.9063 43.1094C26.3906 43.1094 25.931 43.0208 25.5273 42.8437C25.1263 42.6667 24.8073 42.4206 24.5703 42.1055C24.3359 41.7878 24.2083 41.4193 24.1875 41H25.1719C25.1927 41.2578 25.2813 41.4805 25.4375 41.668C25.5938 41.8529 25.7982 41.9961 26.0508 42.0977C26.3034 42.1992 26.5833 42.25 26.8906 42.25C27.2344 42.25 27.5391 42.1901 27.8047 42.0703C28.0703 41.9505 28.2786 41.7839 28.4297 41.5703C28.5807 41.3568 28.6563 41.1094 28.6563 40.8281C28.6563 40.5339 28.5833 40.2747 28.4375 40.0508C28.2917 39.8242 28.0781 39.6471 27.7969 39.5195C27.5156 39.3919 27.1719 39.3281 26.7656 39.3281H26.125V38.4687H26.7656C27.0833 38.4687 27.362 38.4115 27.6016 38.2969C27.8438 38.1823 28.0326 38.0208 28.168 37.8125C28.306 37.6042 28.375 37.3594 28.375 37.0781C28.375 36.8073 28.3151 36.5716 28.1953 36.3711C28.0755 36.1706 27.9063 36.0143 27.6875 35.9023C27.4714 35.7904 27.2161 35.7344 26.9219 35.7344C26.6458 35.7344 26.3854 35.7852 26.1406 35.8867C25.8984 35.9857 25.7005 36.1302 25.5469 36.3203C25.3932 36.5078 25.3099 36.7344 25.2969 37H24.3594C24.375 36.5807 24.5013 36.2135 24.7383 35.8984C24.9753 35.5807 25.2852 35.3333 25.668 35.1562C26.0534 34.9792 26.4766 34.8906 26.9375 34.8906C27.4323 34.8906 27.8568 34.9909 28.2109 35.1914C28.5651 35.3893 28.8372 35.651 29.0273 35.9766C29.2174 36.3021 29.3125 36.6536 29.3125 37.0313C29.3125 37.4818 29.194 37.8659 28.957 38.1836C28.7227 38.5013 28.4036 38.7214 28 38.8438V38.9062C28.5052 38.9896 28.8997 39.2044 29.1836 39.5508C29.4674 39.8945 29.6094 40.3203 29.6094 40.8281C29.6094 41.263 29.4909 41.6536 29.2539 42C29.0195 42.3437 28.6992 42.6146 28.293 42.8125C27.8867 43.0104 27.4245 43.1094 26.9063 43.1094ZM32.9883 43.1406C32.6081 43.1406 32.263 43.069 31.9531 42.9258C31.6432 42.7799 31.3971 42.5703 31.2148 42.2969C31.0326 42.0208 30.9414 41.6875 30.9414 41.2969C30.9414 40.9531 31.0091 40.6745 31.1445 40.4609C31.2799 40.2448 31.4609 40.0755 31.6875 39.9531C31.9141 39.8307 32.1641 39.7396 32.4375 39.6797C32.7135 39.6172 32.9909 39.5677 33.2695 39.5313C33.6341 39.4844 33.9297 39.4492 34.1563 39.4258C34.3854 39.3997 34.5521 39.3568 34.6563 39.2969C34.763 39.237 34.8164 39.1328 34.8164 38.9844V38.9531C34.8164 38.5677 34.7109 38.2682 34.5 38.0547C34.2917 37.8411 33.9753 37.7344 33.5508 37.7344C33.1107 37.7344 32.7656 37.8307 32.5156 38.0234C32.2656 38.2161 32.0898 38.4219 31.9883 38.6406L31.1133 38.3281C31.2695 37.9635 31.4779 37.6797 31.7383 37.4766C32.0013 37.2708 32.2878 37.1276 32.5977 37.0469C32.9102 36.9635 33.2174 36.9219 33.5195 36.9219C33.7122 36.9219 33.9336 36.9453 34.1836 36.9922C34.4362 37.0365 34.6797 37.1289 34.9141 37.2695C35.151 37.4102 35.3477 37.6224 35.5039 37.9062C35.6602 38.1901 35.7383 38.5703 35.7383 39.0469V43H34.8164V42.1875H34.7695C34.707 42.3177 34.6029 42.457 34.457 42.6055C34.3112 42.7539 34.1172 42.8802 33.875 42.9844C33.6328 43.0885 33.3372 43.1406 32.9883 43.1406ZM33.1289 42.3125C33.4935 42.3125 33.8008 42.2409 34.0508 42.0977C34.3034 41.9544 34.4935 41.7695 34.6211 41.543C34.7513 41.3164 34.8164 41.0781 34.8164 40.8281V39.9844C34.7773 40.0312 34.6914 40.0742 34.5586 40.1133C34.4284 40.1497 34.2773 40.1823 34.1055 40.2109C33.9362 40.237 33.7708 40.2604 33.6094 40.2812C33.4505 40.2995 33.3216 40.3151 33.2227 40.3281C32.9831 40.3594 32.7591 40.4102 32.5508 40.4805C32.3451 40.5482 32.1784 40.651 32.0508 40.7891C31.9258 40.9245 31.8633 41.1094 31.8633 41.3437C31.8633 41.6641 31.9818 41.9062 32.2188 42.0703C32.4583 42.2318 32.7617 42.3125 33.1289 42.3125ZM37.4209 43V37H42.1396V43H41.2178V37.8594H38.3428V43H37.4209ZM44.7451 41.6406L47.6357 37H48.6982V43H47.7764V38.3594L44.9014 43H43.8232V37H44.7451V41.6406ZM52.8242 43.125C52.2617 43.125 51.7773 42.9922 51.3711 42.7266C50.9648 42.4609 50.6523 42.0951 50.4336 41.6289C50.2148 41.1628 50.1055 40.6302 50.1055 40.0312C50.1055 39.4219 50.2174 38.8841 50.4414 38.418C50.668 37.9492 50.9831 37.5833 51.3867 37.3203C51.793 37.0547 52.2669 36.9219 52.8086 36.9219C53.2305 36.9219 53.6107 37 53.9492 37.1562C54.2878 37.3125 54.5651 37.5312 54.7813 37.8125C54.9974 38.0937 55.1315 38.4219 55.1836 38.7969H54.2617C54.1914 38.5234 54.0352 38.2812 53.793 38.0703C53.5534 37.8568 53.2305 37.75 52.8242 37.75C52.4648 37.75 52.1497 37.8437 51.8789 38.0312C51.6107 38.2161 51.401 38.4779 51.25 38.8164C51.1016 39.1523 51.0273 39.5469 51.0273 40C51.0273 40.4635 51.1003 40.8672 51.2461 41.2109C51.3945 41.5547 51.6029 41.8216 51.8711 42.0117C52.1419 42.2018 52.4596 42.2969 52.8242 42.2969C53.0638 42.2969 53.2812 42.2552 53.4766 42.1719C53.6719 42.0885 53.8372 41.9688 53.9727 41.8125C54.1081 41.6562 54.2044 41.4687 54.2617 41.25H55.1836C55.1315 41.6042 55.0026 41.9232 54.7969 42.207C54.5938 42.4883 54.3242 42.7122 53.9883 42.8789C53.6549 43.043 53.2669 43.125 52.8242 43.125ZM57.4531 41.6406L60.3438 37H61.4063V43H60.4844V38.3594L57.6094 43H56.5313V37H57.4531V41.6406Z" fill="#0068A5"/>
</svg>
