<svg width="87" height="48" viewBox="0 0 87 48" fill="none" xmlns="http://www.w3.org/2000/svg">
<path d="M40.5 3C39.3463 3 38.2185 3.33955 37.2592 3.9757C36.2999 4.61186 35.5522 5.51605 35.1107 6.57394C34.6692 7.63183 34.5537 8.7959 34.7788 9.91894C35.0038 11.042 35.5594 12.0736 36.3752 12.8832C37.191 13.6929 38.2304 14.2443 39.362 14.4677C40.4935 14.6911 41.6664 14.5764 42.7323 14.1383C43.7982 13.7001 44.7093 12.958 45.3502 12.0059C45.9912 11.0539 46.3333 9.93452 46.3333 8.78947C46.3333 7.25401 45.7188 5.78143 44.6248 4.6957C43.5308 3.60996 42.0471 3 40.5 3ZM40.5 12.2632C39.8078 12.2632 39.1311 12.0594 38.5555 11.6777C37.9799 11.296 37.5313 10.7535 37.2664 10.1188C37.0015 9.48406 36.9322 8.78562 37.0673 8.11179C37.2023 7.43796 37.5356 6.81901 38.0251 6.33321C38.5146 5.8474 39.1383 5.51657 39.8172 5.38254C40.4961 5.2485 41.1999 5.31729 41.8394 5.58021C42.4789 5.84312 43.0256 6.28835 43.4101 6.8596C43.7947 7.43084 44 8.10244 44 8.78947C44 9.71075 43.6313 10.5943 42.9749 11.2457C42.3185 11.8972 41.4283 12.2632 40.5 12.2632ZM51 25V23.8421C51 21.6925 50.1396 19.6308 48.608 18.1108C47.0765 16.5908 44.9993 15.7368 42.8333 15.7368H38.1667C36.0007 15.7368 33.9235 16.5908 32.392 18.1108C30.8604 19.6308 30 21.6925 30 23.8421V25H32.3333V23.8421C32.3333 22.3066 32.9479 20.8341 34.0419 19.7483C35.1358 18.6626 36.6196 18.0526 38.1667 18.0526H42.8333C44.3804 18.0526 45.8642 18.6626 46.9581 19.7483C48.0521 20.8341 48.6667 22.3066 48.6667 23.8421V25H51Z" fill="#0068A5"/>
<path d="M49 11L56 11" stroke="#0068A5" stroke-width="2" stroke-linecap="round" stroke-linejoin="round"/>
<path d="M50 14L56 14" stroke="#0068A5" stroke-width="2" stroke-linecap="round" stroke-linejoin="round"/>
<path d="M51 17L56 17" stroke="#0068A5" stroke-width="2" stroke-linecap="round" stroke-linejoin="round"/>
<path d="M25.7969 43L23.0469 39.3281H22.0625V43H21.0938V35H22.0625V38.4687H22.4844L25.6875 35H26.8438L23.6094 38.5156L26.9531 43H25.7969ZM27.5488 43V42.1406H27.7676C27.9473 42.1406 28.097 42.1055 28.2168 42.0352C28.3366 41.9622 28.4329 41.8359 28.5059 41.6562C28.5814 41.474 28.6387 41.2214 28.6777 40.8984C28.7194 40.5729 28.7493 40.1589 28.7676 39.6562L28.877 37H32.877V43H31.9551V37.8594H29.752L29.6582 40C29.6374 40.4922 29.5931 40.9258 29.5254 41.3008C29.4603 41.6732 29.36 41.9857 29.2246 42.2383C29.0918 42.4909 28.9147 42.681 28.6934 42.8086C28.472 42.9362 28.1947 43 27.8613 43H27.5488ZM35.4902 41.6406L38.3809 37H39.4434V43H38.5215V38.3594L35.6465 43H34.5684V37H35.4902V41.6406ZM43.6475 43.125C43.0693 43.125 42.5706 42.9974 42.1514 42.7422C41.7347 42.4844 41.4131 42.125 41.1865 41.6641C40.9626 41.2005 40.8506 40.6615 40.8506 40.0469C40.8506 39.4323 40.9626 38.8906 41.1865 38.4219C41.4131 37.9505 41.7282 37.5833 42.1318 37.3203C42.5381 37.0547 43.012 36.9219 43.5537 36.9219C43.8662 36.9219 44.1748 36.974 44.4795 37.0781C44.7842 37.1823 45.0615 37.3516 45.3115 37.5859C45.5615 37.8177 45.7607 38.125 45.9092 38.5078C46.0576 38.8906 46.1318 39.362 46.1318 39.9219V40.3125H41.5068V39.5156H45.1943C45.1943 39.1771 45.1266 38.875 44.9912 38.6094C44.8584 38.3437 44.6683 38.1341 44.4209 37.9805C44.1761 37.8268 43.887 37.75 43.5537 37.75C43.1865 37.75 42.8688 37.8411 42.6006 38.0234C42.335 38.2031 42.1305 38.4375 41.9873 38.7266C41.8441 39.0156 41.7725 39.3255 41.7725 39.6562V40.1875C41.7725 40.6406 41.8506 41.0247 42.0068 41.3398C42.1657 41.6523 42.3857 41.8906 42.667 42.0547C42.9482 42.2161 43.2751 42.2969 43.6475 42.2969C43.8896 42.2969 44.1084 42.263 44.3037 42.1953C44.5016 42.125 44.6722 42.0208 44.8154 41.8828C44.9587 41.7422 45.0693 41.5677 45.1475 41.3594L46.0381 41.6094C45.9443 41.9115 45.7868 42.1771 45.5654 42.4062C45.3441 42.6328 45.0706 42.8099 44.7451 42.9375C44.4196 43.0625 44.0537 43.125 43.6475 43.125ZM51.5498 39.5781V40.4375H48.2373V39.5781H51.5498ZM48.4561 37V43H47.5342V37H48.4561ZM52.2529 37V43H51.3311V37H52.2529ZM53.1201 37.8594V37H57.9951V37.8594H56.0264V43H55.1045V37.8594H53.1201ZM60.1367 39.1719H61.8555C62.5586 39.1719 63.0964 39.3503 63.4688 39.707C63.8411 40.0638 64.0273 40.5156 64.0273 41.0625C64.0273 41.4219 63.944 41.7487 63.7773 42.043C63.6107 42.3346 63.3659 42.5677 63.043 42.7422C62.7201 42.9141 62.3242 43 61.8555 43H59.3398V37H60.2617V42.1406H61.8555C62.2201 42.1406 62.5195 42.0443 62.7539 41.8516C62.9883 41.6589 63.1055 41.4115 63.1055 41.1094C63.1055 40.7917 62.9883 40.5326 62.7539 40.332C62.5195 40.1315 62.2201 40.0312 61.8555 40.0312H60.1367V39.1719ZM64.9805 43V37H65.9023V43H64.9805Z" fill="#0068A5"/>
</svg>
