<svg width="86" height="48" viewBox="0 0 86 48" fill="none" xmlns="http://www.w3.org/2000/svg">
<path d="M51.625 6.99967C50.9137 3.82986 48.2332 2.62651 47.5417 2.33301V20.3833C47.5417 21.7041 47.5417 25.6663 48.4308 25.6663C49.468 25.6663 50.781 22.6599 50.4584 20.4163C49.9191 16.6663 50.1447 16.0388 50.4562 15.1724L50.4584 15.1663C50.781 14.2689 52.5142 10.9619 51.625 6.99967Z" stroke="#0068A5" stroke-width="1.5" stroke-linejoin="round"/>
<path d="M40.6952 2.33301V8.38239M40.6952 2.33301H43.0745C44.0263 5.64577 45.4539 11.4071 40.6952 13.1355C39.2676 14.4318 44.0263 25.6663 38.7917 25.6663C33.5571 25.6663 38.3158 14.4318 36.8882 13.1355C32.1295 11.4071 33.5571 5.64577 34.5088 2.33301H36.8882M40.6952 2.33301H36.8882M36.8882 2.33301V8.38239" stroke="#0068A5" stroke-width="1.5" stroke-linecap="round" stroke-linejoin="round"/>
<path d="M26.8281 35V43H25.8594V35.8594H21.8281V43H20.8594V35H26.8281ZM29.5791 41.6406L32.4697 37H33.5322V43H32.6104V38.3594L29.7354 43H28.6572V37H29.5791V41.6406ZM34.4043 37.8594V37H39.2793V37.8594H37.3105V43H36.3887V37.8594H34.4043ZM42.0781 43.1406C41.6979 43.1406 41.3529 43.069 41.043 42.9258C40.7331 42.7799 40.487 42.5703 40.3047 42.2969C40.1224 42.0208 40.0313 41.6875 40.0313 41.2969C40.0313 40.9531 40.099 40.6745 40.2344 40.4609C40.3698 40.2448 40.5508 40.0755 40.7773 39.9531C41.0039 39.8307 41.2539 39.7396 41.5273 39.6797C41.8034 39.6172 42.0807 39.5677 42.3594 39.5313C42.724 39.4844 43.0195 39.4492 43.2461 39.4258C43.4753 39.3997 43.6419 39.3568 43.7461 39.2969C43.8529 39.237 43.9063 39.1328 43.9063 38.9844V38.9531C43.9063 38.5677 43.8008 38.2682 43.5898 38.0547C43.3815 37.8411 43.0651 37.7344 42.6406 37.7344C42.2005 37.7344 41.8555 37.8307 41.6055 38.0234C41.3555 38.2161 41.1797 38.4219 41.0781 38.6406L40.2031 38.3281C40.3594 37.9635 40.5677 37.6797 40.8281 37.4766C41.0911 37.2708 41.3776 37.1276 41.6875 37.0469C42 36.9635 42.3073 36.9219 42.6094 36.9219C42.8021 36.9219 43.0234 36.9453 43.2734 36.9922C43.526 37.0365 43.7695 37.1289 44.0039 37.2695C44.2409 37.4102 44.4375 37.6224 44.5938 37.9062C44.75 38.1901 44.8281 38.5703 44.8281 39.0469V43H43.9063V42.1875H43.8594C43.7969 42.3177 43.6927 42.457 43.5469 42.6055C43.401 42.7539 43.207 42.8802 42.9648 42.9844C42.7227 43.0885 42.4271 43.1406 42.0781 43.1406ZM42.2188 42.3125C42.5833 42.3125 42.8906 42.2409 43.1406 42.0977C43.3932 41.9544 43.5833 41.7695 43.7109 41.543C43.8411 41.3164 43.9063 41.0781 43.9063 40.8281V39.9844C43.8672 40.0312 43.7813 40.0742 43.6484 40.1133C43.5182 40.1497 43.3672 40.1823 43.1953 40.2109C43.026 40.237 42.8607 40.2604 42.6992 40.2812C42.5404 40.2995 42.4115 40.3151 42.3125 40.3281C42.0729 40.3594 41.849 40.4102 41.6406 40.4805C41.4349 40.5482 41.2682 40.651 41.1406 40.7891C41.0156 40.9245 40.9531 41.1094 40.9531 41.3437C40.9531 41.6641 41.0716 41.9062 41.3086 42.0703C41.5482 42.2318 41.8516 42.3125 42.2188 42.3125ZM50.5264 39.5781V40.4375H47.2139V39.5781H50.5264ZM47.4326 37V43H46.5107V37H47.4326ZM51.2295 37V43H50.3076V37H51.2295ZM53.835 41.6406L56.7256 37H57.7881V43H56.8662V38.3594L53.9912 43H52.9131V37H53.835V41.6406ZM61.9922 43.125C61.4141 43.125 60.9154 42.9974 60.4961 42.7422C60.0794 42.4844 59.7578 42.125 59.5313 41.6641C59.3073 41.2005 59.1953 40.6615 59.1953 40.0469C59.1953 39.4323 59.3073 38.8906 59.5313 38.4219C59.7578 37.9505 60.0729 37.5833 60.4766 37.3203C60.8828 37.0547 61.3568 36.9219 61.8984 36.9219C62.2109 36.9219 62.5195 36.974 62.8242 37.0781C63.1289 37.1823 63.4063 37.3516 63.6563 37.5859C63.9063 37.8177 64.1055 38.125 64.2539 38.5078C64.4023 38.8906 64.4766 39.362 64.4766 39.9219V40.3125H59.8516V39.5156H63.5391C63.5391 39.1771 63.4714 38.875 63.3359 38.6094C63.2031 38.3437 63.013 38.1341 62.7656 37.9805C62.5208 37.8268 62.2318 37.75 61.8984 37.75C61.5313 37.75 61.2135 37.8411 60.9453 38.0234C60.6797 38.2031 60.4753 38.4375 60.332 38.7266C60.1888 39.0156 60.1172 39.3255 60.1172 39.6562V40.1875C60.1172 40.6406 60.1953 41.0247 60.3516 41.3398C60.5104 41.6523 60.7305 41.8906 61.0117 42.0547C61.293 42.2161 61.6198 42.2969 61.9922 42.2969C62.2344 42.2969 62.4531 42.263 62.6484 42.1953C62.8464 42.125 63.0169 42.0208 63.1602 41.8828C63.3034 41.7422 63.4141 41.5677 63.4922 41.3594L64.3828 41.6094C64.2891 41.9115 64.1315 42.1771 63.9102 42.4062C63.6888 42.6328 63.4154 42.8099 63.0898 42.9375C62.7643 43.0625 62.3984 43.125 61.9922 43.125Z" fill="#0068A5"/>
</svg>
