<svg width="29" height="28" viewBox="0 0 29 28" fill="none" xmlns="http://www.w3.org/2000/svg">
<g id="icon">
<path id="Vector 3" d="M23.625 6.99967C22.9136 3.82986 20.2332 2.62651 19.5416 2.33301V20.3833C19.5416 21.7041 19.5416 25.6663 20.4308 25.6663C21.4679 25.6663 22.7809 22.6599 22.4583 20.4163C21.919 16.6663 22.1446 16.0388 22.4561 15.1724L22.4583 15.1663C22.7809 14.2689 24.5141 10.9619 23.625 6.99967Z" stroke="#0068A5" stroke-width="1.5" stroke-linejoin="round"/>
<path id="Vector" d="M12.6951 2.33301V8.38239M12.6951 2.33301H15.0745C16.0262 5.64577 17.4539 11.4071 12.6951 13.1355C11.2675 14.4318 16.0262 25.6663 10.7916 25.6663C5.55702 25.6663 10.3158 14.4318 8.88813 13.1355C4.1294 11.4071 5.55702 5.64577 6.50876 2.33301H8.88813M12.6951 2.33301H8.88813M8.88813 2.33301V8.38239" stroke="#0068A5" stroke-width="1.5" stroke-linecap="round" stroke-linejoin="round"/>
</g>
</svg>
