<svg width="29" height="28" viewBox="0 0 29 28" fill="none" xmlns="http://www.w3.org/2000/svg">
<g id="icon" clip-path="url(#clip0_813_8532)">
<path id="Vector" d="M17.9369 10.6884L21.6703 14.4217C22.1857 14.9372 23.008 14.9507 23.5068 14.4518C24.0057 13.953 23.9922 13.1307 23.4767 12.6153L16.0101 5.1486C15.4946 4.63314 14.6723 4.61966 14.1735 5.1185C13.6746 5.61734 13.6881 6.4396 14.2036 6.95507L17.9369 10.6884ZM17.9369 10.6884L17.0036 9.75507L10.3799 16.3788L12.2466 18.2454L18.8703 11.6217L17.9369 10.6884ZM15.0767 22.882C14.5778 23.3808 13.7556 23.3674 13.2401 22.8519L5.77342 15.3852C5.25795 14.8698 5.24448 14.0475 5.74332 13.5487C6.24216 13.0498 7.06442 13.0633 7.57988 13.5788L15.0466 21.0454C15.562 21.5609 15.5755 22.3832 15.0767 22.882ZM24.0688 11.4009C23.57 11.8998 22.7477 11.8863 22.2323 11.3708L17.2545 6.39305C16.739 5.87758 16.7256 5.05532 17.2244 4.55648C17.7232 4.05764 18.5455 4.07112 19.061 4.58658L24.0387 9.56436C24.5542 10.0798 24.5677 10.9021 24.0688 11.4009ZM12.0257 23.444C11.5269 23.9429 10.7046 23.9294 10.1892 23.4139L5.2114 18.4361C4.69593 17.9207 4.68246 17.0984 5.1813 16.5996C5.68014 16.1007 6.5024 16.1142 7.01786 16.6297L11.9956 21.6075C12.5111 22.1229 12.5246 22.9452 12.0257 23.444ZM23.3864 7.10557L23.9886 6.50342C24.4874 6.00457 24.4739 5.18232 23.9585 4.66685C23.443 4.15138 22.6208 4.13791 22.1219 4.63675L21.5198 5.2389C21.0209 5.73775 21.0344 6.56 21.5499 7.07547C22.0653 7.59094 22.8876 7.60441 23.3864 7.10557ZM7.12823 23.3638L7.73039 22.7616C8.22923 22.2628 8.21575 21.4405 7.70029 20.925C7.18482 20.4096 6.36256 20.3961 5.86372 20.8949L5.26157 21.4971C4.76272 21.9959 4.7762 22.8182 5.29167 23.3337C5.80713 23.8491 6.62939 23.8626 7.12823 23.3638Z" stroke="#0068A5" stroke-width="1.5" stroke-linejoin="round"/>
</g>
<defs>
<clipPath id="clip0_813_8532">
<rect width="28" height="28" fill="white" transform="translate(0.625)"/>
</clipPath>
</defs>
</svg>
