<svg width="40" height="40" viewBox="0 0 41 28" fill="none" xmlns="http://www.w3.org/2000/svg">
  <path
    d="M8.5 0V28H14.5V16H26.5V28H32.5V0H26.5V12H14.5V0H8.5ZM2.5 20C2.5 20.5304 2.71071 21.0391 3.08579 21.4142C3.46086 21.7893 3.96957 22 4.5 22H6.5V6H4.5C3.96957 6 3.46086 6.21071 3.08579 6.58579C2.71071 6.96086 2.5 7.46957 2.5 8V12H0.5V16H2.5V20ZM38.5 8C38.5 7.46957 38.2893 6.96086 37.9142 6.58579C37.5391 6.21071 37.0304 6 36.5 6H34.5V22H36.5C37.0304 22 37.5391 21.7893 37.9142 21.4142C38.2893 21.0391 38.5 20.5304 38.5 20V16H40.5V12H38.5V8Z"
    fill="gray"/>
</svg>
