<svg width="20" height="17" viewBox="0 0 20 17" fill="none" xmlns="http://www.w3.org/2000/svg">
<path d="M11.8214 13H3.92857C3.6823 13 3.44611 12.8946 3.27197 12.7071C3.09783 12.5196 3 12.2652 3 12V4C3 3.73478 3.09783 3.48043 3.27197 3.29289C3.44611 3.10536 3.6823 3 3.92857 3H11.8214C12.0677 3 12.3039 3.10536 12.478 3.29289C12.6522 3.48043 12.75 3.73478 12.75 4V6.03L15.2664 4.095C15.3357 4.04187 15.4172 4.01025 15.5021 4.00362C15.5869 3.99698 15.6718 4.01557 15.7475 4.05737C15.8232 4.09916 15.8868 4.16254 15.9313 4.2406C15.9759 4.31866 15.9996 4.40839 16 4.5V11.5C15.9996 11.5916 15.9759 11.6813 15.9313 11.7594C15.8868 11.8375 15.8232 11.9008 15.7475 11.9426C15.6718 11.9844 15.5869 12.003 15.5021 11.9964C15.4172 11.9897 15.3357 11.9581 15.2664 11.905L12.75 9.97V12C12.75 12.2652 12.6522 12.5196 12.478 12.7071C12.3039 12.8946 12.0677 13 11.8214 13Z" fill="#5CADDC"/>
</svg>
