<svg width="17" height="17" viewBox="0 0 17 17" fill="none" xmlns="http://www.w3.org/2000/svg">
<path d="M12.0244 2.19184L12.1061 2.35413L12.7171 3.98021C12.7648 4.1075 12.8656 4.20933 12.9939 4.25706L14.5638 4.84682C15.2532 5.10458 15.6234 5.84072 15.4399 6.53761L15.3954 6.67551L14.6656 8.29099C14.6375 8.35259 14.623 8.41951 14.623 8.48722C14.623 8.55493 14.6375 8.62185 14.6656 8.68345L15.3593 10.2109C15.5045 10.5311 15.5258 10.8937 15.4192 11.2287C15.3127 11.5637 15.0857 11.8473 14.7823 12.0247L14.62 12.1064L12.9939 12.7174C12.9309 12.7413 12.8737 12.7783 12.8262 12.8261C12.7786 12.8738 12.7418 12.9311 12.7181 12.9942L12.1284 14.5641C12.0049 14.8937 11.7635 15.1658 11.451 15.3276C11.1384 15.4895 10.7769 15.5296 10.4365 15.4403L10.2986 15.3957L8.68313 14.6659C8.62153 14.6378 8.55461 14.6233 8.4869 14.6233C8.41919 14.6233 8.35227 14.6378 8.29067 14.6659L6.76429 15.3596C6.44412 15.5048 6.08151 15.5261 5.74652 15.4196C5.41153 15.313 5.12791 15.0861 4.95045 14.7826L4.86878 14.6203L4.25674 12.9942C4.23284 12.9312 4.19579 12.874 4.14805 12.8265C4.10031 12.7789 4.04299 12.7421 3.97989 12.7184L2.41002 12.1287C2.08043 12.0052 1.80837 11.7638 1.64651 11.4513C1.48466 11.1387 1.44452 10.7773 1.53387 10.4368L1.57842 10.2989L2.30926 8.68345C2.33727 8.62183 2.35177 8.55492 2.35177 8.48722C2.35177 8.41952 2.33727 8.35261 2.30926 8.29099L1.61448 6.76461C1.46925 6.44456 1.44774 6.08205 1.55411 5.74707C1.66048 5.41209 1.88718 5.1284 2.19045 4.95077L2.35275 4.8691L3.97989 4.256C4.04309 4.23223 4.10048 4.19523 4.14823 4.14749C4.19597 4.09974 4.23297 4.04235 4.25674 3.97915L4.8465 2.40928C4.96997 2.07992 5.21117 1.80803 5.52348 1.64619C5.83578 1.48436 6.19701 1.44407 6.53729 1.53313L6.67519 1.57768L8.29067 2.30851C8.35229 2.33653 8.4192 2.35103 8.4869 2.35103C8.5546 2.35103 8.62151 2.33653 8.68313 2.30851L10.2106 1.6148C10.5306 1.46957 10.8931 1.44806 11.2281 1.55443C11.5631 1.6608 11.8468 1.88856 12.0244 2.19184ZM10.7834 6.05392L7.40284 9.91495L6.17028 8.68239C6.08073 8.59671 5.96119 8.54949 5.83726 8.55085C5.71332 8.55222 5.59485 8.60206 5.50721 8.6897C5.41957 8.77734 5.36973 8.89581 5.36837 9.01974C5.367 9.14368 5.41422 9.26322 5.49991 9.35277L7.09099 10.9439C7.13691 10.9897 7.19174 11.0256 7.25209 11.0493C7.31243 11.0731 7.37702 11.0842 7.44184 11.082C7.50667 11.0799 7.57035 11.0644 7.62896 11.0366C7.68757 11.0088 7.73985 10.9693 7.78258 10.9205L11.4951 6.67763C11.5707 6.5822 11.6067 6.46136 11.5956 6.34012C11.5846 6.21888 11.5273 6.10655 11.4357 6.02638C11.3441 5.94622 11.2251 5.90436 11.1035 5.90949C10.9818 5.91462 10.8679 5.96633 10.7834 6.05392Z" fill="#94BED5"/>
</svg>
