<svg width="24" height="24" viewBox="0 0 24 24" fill="none" xmlns="http://www.w3.org/2000/svg">
<path d="M14.5 6.5L9.5 10M14.5 17.5L9.5 14M9.5 12C9.5 12.663 9.23661 13.2989 8.76777 13.7678C8.29893 14.2366 7.66304 14.5 7 14.5C6.33696 14.5 5.70107 14.2366 5.23223 13.7678C4.76339 13.2989 4.5 12.663 4.5 12C4.5 11.337 4.76339 10.7011 5.23223 10.2322C5.70107 9.76339 6.33696 9.5 7 9.5C7.66304 9.5 8.29893 9.76339 8.76777 10.2322C9.23661 10.7011 9.5 11.337 9.5 12ZM19.5 18.5C19.5 19.163 19.2366 19.7989 18.7678 20.2678C18.2989 20.7366 17.663 21 17 21C16.337 21 15.7011 20.7366 15.2322 20.2678C14.7634 19.7989 14.5 19.163 14.5 18.5C14.5 17.837 14.7634 17.2011 15.2322 16.7322C15.7011 16.2634 16.337 16 17 16C17.663 16 18.2989 16.2634 18.7678 16.7322C19.2366 17.2011 19.5 17.837 19.5 18.5ZM19.5 5.5C19.5 6.16304 19.2366 6.79893 18.7678 7.26777C18.2989 7.73661 17.663 8 17 8C16.337 8 15.7011 7.73661 15.2322 7.26777C14.7634 6.79893 14.5 6.16304 14.5 5.5C14.5 4.83696 14.7634 4.20107 15.2322 3.73223C15.7011 3.26339 16.337 3 17 3C17.663 3 18.2989 3.26339 18.7678 3.73223C19.2366 4.20107 19.5 4.83696 19.5 5.5Z" stroke="#057CC1" stroke-width="1.5" stroke-linecap="round" stroke-linejoin="round"/>
</svg>
