<svg width="18" height="17" viewBox="0 0 18 17" fill="none" xmlns="http://www.w3.org/2000/svg">
<path fill-rule="evenodd" clip-rule="evenodd" d="M9.216 14.8102L9.2175 14.8095L9.22125 14.807L9.2325 14.7989L9.27675 14.7688C9.31425 14.7425 9.369 14.7043 9.438 14.654C9.576 14.5541 9.77175 14.4071 10.0054 14.2184C10.6187 13.7233 11.1921 13.1858 11.721 12.6105C12.9615 11.2554 14.25 9.32167 14.25 7.11025C14.25 5.78921 13.6973 4.52129 12.7133 3.58629C12.2269 3.12353 11.6484 2.75619 11.0112 2.5054C10.3739 2.25461 9.69038 2.12533 9 2.125C8.30964 2.12529 7.62616 2.25451 6.98889 2.50524C6.35162 2.75597 5.77314 3.12324 5.28675 3.58594C4.30178 4.52308 3.74934 5.79016 3.75 7.1106C3.75 9.32167 5.0385 11.2554 6.279 12.6105C6.80789 13.1858 7.38135 13.7233 7.99463 14.2184C8.22863 14.4071 8.424 14.5541 8.562 14.654C8.62969 14.7033 8.69807 14.7517 8.76713 14.7992L8.77913 14.807L8.7825 14.8095L8.784 14.8102C8.91338 14.8962 9.08663 14.8962 9.216 14.8102ZM10.875 7.08333C10.875 7.55299 10.6775 8.00341 10.3258 8.3355C9.9742 8.6676 9.49728 8.85417 9 8.85417C8.50272 8.85417 8.02581 8.6676 7.67418 8.3355C7.32254 8.00341 7.125 7.55299 7.125 7.08333C7.125 6.61368 7.32254 6.16326 7.67418 5.83117C8.02581 5.49907 8.50272 5.3125 9 5.3125C9.49728 5.3125 9.9742 5.49907 10.3258 5.83117C10.6775 6.16326 10.875 6.61368 10.875 7.08333Z" fill="#5CADDC"/>
</svg>
