<svg width="24" height="24" viewBox="0 0 24 24" fill="none" xmlns="http://www.w3.org/2000/svg">
<path d="M15.9577 9.74401C15.9074 9.59592 15.8149 9.4658 15.6915 9.36971C15.5681 9.27362 15.4192 9.21576 15.2633 9.20328L10.7025 8.84093L8.72887 4.47271C8.66602 4.33202 8.56378 4.21252 8.43451 4.12864C8.30523 4.04476 8.15444 4.00008 8.00033 4C7.84622 3.99992 7.69537 4.04443 7.56601 4.12817C7.43664 4.2119 7.33427 4.33129 7.27126 4.47191L5.29765 8.84093L0.736825 9.20328C0.583589 9.21542 0.437094 9.27144 0.314867 9.36465C0.19264 9.45785 0.099856 9.58429 0.0476158 9.72884C-0.00462433 9.87339 -0.0141088 10.0299 0.0202971 10.1797C0.054703 10.3295 0.131542 10.4662 0.241623 10.5735L3.61204 13.8587L2.42004 19.0196C2.38384 19.1758 2.39544 19.3393 2.45333 19.4888C2.51122 19.6384 2.61273 19.7671 2.74468 19.8582C2.87663 19.9494 3.03293 19.9988 3.19331 20C3.35368 20.0012 3.51072 19.9542 3.64404 19.8651L8.00007 16.9615L12.3561 19.8651C12.4924 19.9555 12.6531 20.0021 12.8166 19.9985C12.9801 19.9949 13.1386 19.9414 13.2708 19.845C13.403 19.7487 13.5025 19.6142 13.5559 19.4596C13.6093 19.305 13.6142 19.1378 13.5697 18.9804L12.1065 13.8611L15.7353 10.5959C15.9729 10.3815 16.0601 10.0472 15.9577 9.74401Z" fill="#0DB866"/>
</svg>
