<svg width="32" height="32" viewBox="0 0 32 32" fill="none" xmlns="http://www.w3.org/2000/svg">
<path fill-rule="evenodd" clip-rule="evenodd" d="M31.2659 7.28676C31.4885 6.54507 31.2659 6 30.2074 6H26.7066C25.8163 6 25.406 6.47076 25.1837 6.99023C25.1837 6.99023 23.4031 11.3294 20.8811 14.1483C20.0655 14.9643 19.6947 15.2242 19.2491 15.2242C19.0269 15.2242 18.7048 14.9643 18.7048 14.223V7.28676C18.7048 6.3968 18.4463 6 17.7046 6H12.2027C11.6466 6 11.3117 6.41316 11.3117 6.80498C11.3117 7.64872 12.5729 7.84356 12.703 10.2173V15.3725C12.703 16.5028 12.4989 16.7083 12.0537 16.7083C10.8672 16.7083 7.98012 12.3492 6.26776 7.36143C5.93211 6.39182 5.59576 6.00036 4.70117 6.00036H1.20036C0.199823 6 0 6.47076 0 6.98987C0 7.91716 1.18649 12.5163 5.52607 18.5988C8.41888 22.7524 12.4946 25.0045 16.2038 25.0045C18.4289 25.0045 18.7044 24.5042 18.7044 23.6427V20.5035C18.7044 19.503 18.9153 19.3035 19.62 19.3035C20.1391 19.3035 21.0291 19.5627 23.1062 21.5656C25.4799 23.9393 25.871 25.0042 27.2065 25.0042H30.7073C31.7071 25.0042 32.2074 24.5039 31.9191 23.5172C31.603 22.5334 30.4698 21.1062 28.9662 19.4148C28.1502 18.4505 26.926 17.412 26.5551 16.8925C26.0357 16.2251 26.1843 15.9286 26.5551 15.3348C26.5551 15.3348 30.8211 9.32659 31.2659 7.28676Z" fill="#5CADDC"/>
</svg>
