<svg width="87" height="48" viewBox="0 0 87 48" fill="none" xmlns="http://www.w3.org/2000/svg">
<path d="M43.375 2.33301C36.942 2.33301 31.7083 6.52017 31.7083 11.6663C31.7083 15.059 33.9226 18.1017 37.5416 19.756V25.6663L43.7716 20.9938C50.0215 20.827 55.0416 16.7063 55.0416 11.6663C55.0416 6.52017 49.808 2.33301 43.375 2.33301ZM43.375 18.6663H42.9865L39.875 20.9997V18.1798L39.1271 17.8917C35.99 16.6842 34.0416 14.2983 34.0416 11.6663C34.0416 7.80584 38.2288 4.66634 43.375 4.66634C48.5211 4.66634 52.7083 7.80584 52.7083 11.6663C52.7083 15.5268 48.5211 18.6663 43.375 18.6663Z" fill="#869095"/>
<path d="M19.2813 37.5H18.3125C18.2552 37.2214 18.1549 36.9766 18.0117 36.7656C17.8711 36.5547 17.6992 36.3776 17.4961 36.2344C17.2956 36.0885 17.0729 35.9792 16.8281 35.9062C16.5833 35.8333 16.3281 35.7969 16.0625 35.7969C15.5781 35.7969 15.1393 35.9193 14.7461 36.1641C14.3555 36.4089 14.0443 36.7695 13.8125 37.2461C13.5833 37.7227 13.4688 38.3073 13.4688 39C13.4688 39.6927 13.5833 40.2773 13.8125 40.7539C14.0443 41.2305 14.3555 41.5911 14.7461 41.8359C15.1393 42.0807 15.5781 42.2031 16.0625 42.2031C16.3281 42.2031 16.5833 42.1667 16.8281 42.0937C17.0729 42.0208 17.2956 41.9128 17.4961 41.7695C17.6992 41.6237 17.8711 41.4453 18.0117 41.2344C18.1549 41.0208 18.2552 40.776 18.3125 40.5H19.2813C19.2083 40.9089 19.0755 41.2747 18.8828 41.5977C18.6901 41.9206 18.4505 42.1953 18.1641 42.4219C17.8776 42.6458 17.556 42.8164 17.1992 42.9336C16.8451 43.0508 16.4661 43.1094 16.0625 43.1094C15.3802 43.1094 14.7734 42.9427 14.2422 42.6094C13.7109 42.276 13.293 41.8021 12.9883 41.1875C12.6836 40.5729 12.5313 39.8437 12.5313 39C12.5313 38.1562 12.6836 37.4271 12.9883 36.8125C13.293 36.1979 13.7109 35.724 14.2422 35.3906C14.7734 35.0573 15.3802 34.8906 16.0625 34.8906C16.4661 34.8906 16.8451 34.9492 17.1992 35.0664C17.556 35.1836 17.8776 35.3555 18.1641 35.582C18.4505 35.806 18.6901 36.0794 18.8828 36.4023C19.0755 36.7227 19.2083 37.0885 19.2813 37.5ZM23.1592 43.125C22.6175 43.125 22.1423 42.9961 21.7334 42.7383C21.3271 42.4805 21.0094 42.1198 20.7803 41.6562C20.5537 41.1927 20.4404 40.651 20.4404 40.0312C20.4404 39.4062 20.5537 38.8607 20.7803 38.3945C21.0094 37.9284 21.3271 37.5664 21.7334 37.3086C22.1423 37.0508 22.6175 36.9219 23.1592 36.9219C23.7008 36.9219 24.1748 37.0508 24.5811 37.3086C24.9899 37.5664 25.3076 37.9284 25.5342 38.3945C25.7633 38.8607 25.8779 39.4062 25.8779 40.0312C25.8779 40.651 25.7633 41.1927 25.5342 41.6562C25.3076 42.1198 24.9899 42.4805 24.5811 42.7383C24.1748 42.9961 23.7008 43.125 23.1592 43.125ZM23.1592 42.2969C23.5706 42.2969 23.9092 42.1914 24.1748 41.9805C24.4404 41.7695 24.637 41.4922 24.7646 41.1484C24.8923 40.8047 24.9561 40.4323 24.9561 40.0312C24.9561 39.6302 24.8923 39.2565 24.7646 38.9102C24.637 38.5638 24.4404 38.2839 24.1748 38.0703C23.9092 37.8568 23.5706 37.75 23.1592 37.75C22.7477 37.75 22.4092 37.8568 22.1436 38.0703C21.8779 38.2839 21.6813 38.5638 21.5537 38.9102C21.4261 39.2565 21.3623 39.6302 21.3623 40.0312C21.3623 40.4323 21.4261 40.8047 21.5537 41.1484C21.6813 41.4922 21.8779 41.7695 22.1436 41.9805C22.4092 42.1914 22.7477 42.2969 23.1592 42.2969ZM29.7227 43.125C29.181 43.125 28.7057 42.9961 28.2969 42.7383C27.8906 42.4805 27.5729 42.1198 27.3438 41.6562C27.1172 41.1927 27.0039 40.651 27.0039 40.0312C27.0039 39.4062 27.1172 38.8607 27.3438 38.3945C27.5729 37.9284 27.8906 37.5664 28.2969 37.3086C28.7057 37.0508 29.181 36.9219 29.7227 36.9219C30.2643 36.9219 30.7383 37.0508 31.1445 37.3086C31.5534 37.5664 31.8711 37.9284 32.0977 38.3945C32.3268 38.8607 32.4414 39.4062 32.4414 40.0312C32.4414 40.651 32.3268 41.1927 32.0977 41.6562C31.8711 42.1198 31.5534 42.4805 31.1445 42.7383C30.7383 42.9961 30.2643 43.125 29.7227 43.125ZM29.7227 42.2969C30.1341 42.2969 30.4727 42.1914 30.7383 41.9805C31.0039 41.7695 31.2005 41.4922 31.3281 41.1484C31.4557 40.8047 31.5195 40.4323 31.5195 40.0312C31.5195 39.6302 31.4557 39.2565 31.3281 38.9102C31.2005 38.5638 31.0039 38.2839 30.7383 38.0703C30.4727 37.8568 30.1341 37.75 29.7227 37.75C29.3112 37.75 28.9727 37.8568 28.707 38.0703C28.4414 38.2839 28.2448 38.5638 28.1172 38.9102C27.9896 39.2565 27.9258 39.6302 27.9258 40.0312C27.9258 40.4323 27.9896 40.8047 28.1172 41.1484C28.2448 41.4922 28.4414 41.7695 28.707 41.9805C28.9727 42.1914 29.3112 42.2969 29.7227 42.2969ZM38.3018 34.75L38.7705 35.3125C38.5882 35.4896 38.3773 35.6133 38.1377 35.6836C37.8981 35.7539 37.6273 35.7969 37.3252 35.8125C37.0231 35.8281 36.6872 35.8437 36.3174 35.8594C35.9007 35.875 35.5557 35.9766 35.2822 36.1641C35.0088 36.3516 34.7979 36.6224 34.6494 36.9766C34.501 37.3307 34.4059 37.7656 34.3643 38.2812H34.4424C34.6455 37.9062 34.9268 37.6302 35.2861 37.4531C35.6455 37.276 36.0309 37.1875 36.4424 37.1875C36.9111 37.1875 37.333 37.2969 37.708 37.5156C38.083 37.7344 38.3799 38.0586 38.5986 38.4883C38.8174 38.918 38.9268 39.4479 38.9268 40.0781C38.9268 40.7057 38.8148 41.2474 38.5908 41.7031C38.3695 42.1589 38.0583 42.5104 37.6572 42.7578C37.2588 43.0026 36.7913 43.125 36.2549 43.125C35.7184 43.125 35.2484 42.9987 34.8447 42.7461C34.4411 42.4909 34.1273 42.1133 33.9033 41.6133C33.6794 41.1107 33.5674 40.4896 33.5674 39.75V39.1094C33.5674 37.7734 33.7939 36.7604 34.2471 36.0703C34.7028 35.3802 35.3877 35.0234 36.3018 35C36.6247 34.9896 36.9124 34.987 37.165 34.9922C37.4176 34.9974 37.6377 34.9857 37.8252 34.957C38.0127 34.9284 38.1715 34.8594 38.3018 34.75ZM36.2549 42.2969C36.6169 42.2969 36.9281 42.2057 37.1885 42.0234C37.4515 41.8411 37.6533 41.5846 37.7939 41.2539C37.9346 40.9206 38.0049 40.5286 38.0049 40.0781C38.0049 39.6406 37.9333 39.2682 37.79 38.9609C37.6494 38.6536 37.4476 38.4193 37.1846 38.2578C36.9215 38.0964 36.6064 38.0156 36.2393 38.0156C35.971 38.0156 35.7301 38.0612 35.5166 38.1523C35.3031 38.2435 35.1208 38.3776 34.9697 38.5547C34.8187 38.7318 34.7015 38.9479 34.6182 39.2031C34.5374 39.4583 34.4945 39.75 34.4893 40.0781C34.4893 40.75 34.6468 41.2878 34.9619 41.6914C35.277 42.0951 35.708 42.2969 36.2549 42.2969ZM48.5244 42.1406L48.415 44.7188H47.4619V43H46.6807V42.1406H48.5244ZM40.3369 37H41.2588V42.1406H43.5244V37H44.4463V42.1406H46.7119V37H47.6338V43H40.3369V37ZM52.3164 43.125C51.7383 43.125 51.2396 42.9974 50.8203 42.7422C50.4036 42.4844 50.082 42.125 49.8555 41.6641C49.6315 41.2005 49.5195 40.6615 49.5195 40.0469C49.5195 39.4323 49.6315 38.8906 49.8555 38.4219C50.082 37.9505 50.3971 37.5833 50.8008 37.3203C51.207 37.0547 51.681 36.9219 52.2227 36.9219C52.5352 36.9219 52.8438 36.974 53.1484 37.0781C53.4531 37.1823 53.7305 37.3516 53.9805 37.5859C54.2305 37.8177 54.4297 38.125 54.5781 38.5078C54.7266 38.8906 54.8008 39.362 54.8008 39.9219V40.3125H50.1758V39.5156H53.8633C53.8633 39.1771 53.7956 38.875 53.6602 38.6094C53.5273 38.3437 53.3372 38.1341 53.0898 37.9805C52.8451 37.8268 52.556 37.75 52.2227 37.75C51.8555 37.75 51.5378 37.8411 51.2695 38.0234C51.0039 38.2031 50.7995 38.4375 50.6563 38.7266C50.513 39.0156 50.4414 39.3255 50.4414 39.6562V40.1875C50.4414 40.6406 50.5195 41.0247 50.6758 41.3398C50.8346 41.6523 51.0547 41.8906 51.3359 42.0547C51.6172 42.2161 51.944 42.2969 52.3164 42.2969C52.5586 42.2969 52.7773 42.263 52.9727 42.1953C53.1706 42.125 53.3411 42.0208 53.4844 41.8828C53.6276 41.7422 53.7383 41.5677 53.8164 41.3594L54.707 41.6094C54.6133 41.9115 54.4557 42.1771 54.2344 42.4062C54.013 42.6328 53.7396 42.8099 53.4141 42.9375C53.0885 43.0625 52.7227 43.125 52.3164 43.125ZM60.2188 39.5781V40.4375H56.9062V39.5781H60.2188ZM57.125 37V43H56.2031V37H57.125ZM60.9219 37V43H60V37H60.9219ZM63.5273 41.6406L66.418 37H67.4805V43H66.5586V38.3594L63.6836 43H62.6055V37H63.5273V41.6406ZM72.7783 43V37.8438H71.1846C70.8252 37.8438 70.5426 37.9271 70.3369 38.0937C70.1312 38.2604 70.0283 38.4896 70.0283 38.7812C70.0283 39.0677 70.1208 39.293 70.3057 39.457C70.4932 39.6211 70.7497 39.7031 71.0752 39.7031H73.0127V40.5625H71.0752C70.6689 40.5625 70.3187 40.4909 70.0244 40.3477C69.7301 40.2044 69.5036 40 69.3447 39.7344C69.1859 39.4661 69.1064 39.1484 69.1064 38.7812C69.1064 38.4115 69.1898 38.0937 69.3564 37.8281C69.5231 37.5625 69.7614 37.3581 70.0713 37.2148C70.3838 37.0716 70.7549 37 71.1846 37H73.6533V43H72.7783ZM68.7783 43L70.4814 40.0156H71.4814L69.7783 43H68.7783Z" fill="#869095"/>
</svg>
