<svg width="87" height="48" viewBox="0 0 87 48" fill="none" xmlns="http://www.w3.org/2000/svg">
<g clip-path="url(#clip0_813_8510)">
<path d="M46.9369 10.6884L50.6703 14.4217C51.1857 14.9372 52.008 14.9507 52.5068 14.4518C53.0057 13.953 52.9922 13.1307 52.4767 12.6153L45.0101 5.1486C44.4946 4.63314 43.6723 4.61966 43.1735 5.1185C42.6746 5.61734 42.6881 6.4396 43.2036 6.95507L46.9369 10.6884ZM46.9369 10.6884L46.0036 9.75507L39.3799 16.3788L41.2466 18.2454L47.8703 11.6217L46.9369 10.6884ZM44.0767 22.882C43.5778 23.3808 42.7556 23.3674 42.2401 22.8519L34.7734 15.3852C34.258 14.8698 34.2445 14.0475 34.7433 13.5487C35.2422 13.0498 36.0644 13.0633 36.5799 13.5788L44.0466 21.0454C44.562 21.5609 44.5755 22.3832 44.0767 22.882ZM53.0688 11.4009C52.57 11.8998 51.7477 11.8863 51.2323 11.3708L46.2545 6.39305C45.739 5.87758 45.7256 5.05532 46.2244 4.55648C46.7232 4.05764 47.5455 4.07112 48.061 4.58658L53.0387 9.56436C53.5542 10.0798 53.5677 10.9021 53.0688 11.4009ZM41.0257 23.444C40.5269 23.9429 39.7046 23.9294 39.1892 23.4139L34.2114 18.4361C33.6959 17.9207 33.6825 17.0984 34.1813 16.5996C34.6801 16.1007 35.5024 16.1142 36.0179 16.6297L40.9956 21.6075C41.5111 22.1229 41.5246 22.9452 41.0257 23.444ZM52.3864 7.10557L52.9886 6.50342C53.4874 6.00457 53.4739 5.18232 52.9585 4.66685C52.443 4.15138 51.6208 4.13791 51.1219 4.63675L50.5198 5.2389C50.0209 5.73775 50.0344 6.56 50.5499 7.07547C51.0653 7.59094 51.8876 7.60441 52.3864 7.10557ZM36.1282 23.3638L36.7304 22.7616C37.2292 22.2628 37.2158 21.4405 36.7003 20.925C36.1848 20.4096 35.3626 20.3961 34.8637 20.8949L34.2616 21.4971C33.7627 21.9959 33.7762 22.8182 34.2917 23.3337C34.8071 23.8491 35.6294 23.8626 36.1282 23.3638Z" stroke="#869095" stroke-width="1.5" stroke-linejoin="round"/>
</g>
<path d="M11.6563 35.8594V35H17.6562V35.8594H15.1406V43H14.1719V35.8594H11.6563ZM18.4033 45.25V37H19.2939V37.9531H19.4033C19.471 37.849 19.5648 37.7161 19.6846 37.5547C19.807 37.3906 19.9814 37.2448 20.208 37.1172C20.4372 36.987 20.7471 36.9219 21.1377 36.9219C21.6429 36.9219 22.0882 37.0482 22.4736 37.3008C22.859 37.5534 23.1598 37.9115 23.376 38.375C23.5921 38.8385 23.7002 39.3854 23.7002 40.0156C23.7002 40.651 23.5921 41.2018 23.376 41.668C23.1598 42.1315 22.8604 42.4909 22.4775 42.7461C22.0947 42.9987 21.6533 43.125 21.1533 43.125C20.7679 43.125 20.4593 43.0612 20.2275 42.9336C19.9958 42.8034 19.8174 42.6562 19.6924 42.4922C19.5674 42.3255 19.471 42.1875 19.4033 42.0781H19.3252V45.25H18.4033ZM19.3096 40C19.3096 40.4531 19.376 40.8529 19.5088 41.1992C19.6416 41.543 19.8356 41.8125 20.0908 42.0078C20.346 42.2005 20.6585 42.2969 21.0283 42.2969C21.4137 42.2969 21.7354 42.1953 21.9932 41.9922C22.2536 41.7865 22.4489 41.5104 22.5791 41.1641C22.7119 40.8151 22.7783 40.4271 22.7783 40C22.7783 39.5781 22.7132 39.1979 22.583 38.8594C22.4554 38.5182 22.2614 38.2487 22.001 38.0508C21.7432 37.8503 21.4189 37.75 21.0283 37.75C20.6533 37.75 20.3382 37.8451 20.083 38.0352C19.8278 38.2227 19.6351 38.4857 19.5049 38.8242C19.3747 39.1602 19.3096 39.5521 19.3096 40ZM27.6221 43.125C27.0439 43.125 26.5452 42.9974 26.126 42.7422C25.7093 42.4844 25.3877 42.125 25.1611 41.6641C24.9372 41.2005 24.8252 40.6615 24.8252 40.0469C24.8252 39.4323 24.9372 38.8906 25.1611 38.4219C25.3877 37.9505 25.7028 37.5833 26.1064 37.3203C26.5127 37.0547 26.9867 36.9219 27.5283 36.9219C27.8408 36.9219 28.1494 36.974 28.4541 37.0781C28.7588 37.1823 29.0361 37.3516 29.2861 37.5859C29.5361 37.8177 29.7354 38.125 29.8838 38.5078C30.0322 38.8906 30.1064 39.362 30.1064 39.9219V40.3125H25.4814V39.5156H29.1689C29.1689 39.1771 29.1012 38.875 28.9658 38.6094C28.833 38.3437 28.6429 38.1341 28.3955 37.9805C28.1507 37.8268 27.8617 37.75 27.5283 37.75C27.1611 37.75 26.8434 37.8411 26.5752 38.0234C26.3096 38.2031 26.1051 38.4375 25.9619 38.7266C25.8187 39.0156 25.7471 39.3255 25.7471 39.6562V40.1875C25.7471 40.6406 25.8252 41.0247 25.9814 41.3398C26.1403 41.6523 26.3604 41.8906 26.6416 42.0547C26.9229 42.2161 27.2497 42.2969 27.6221 42.2969C27.8643 42.2969 28.083 42.263 28.2783 42.1953C28.4762 42.125 28.6468 42.0208 28.79 41.8828C28.9333 41.7422 29.0439 41.5677 29.1221 41.3594L30.0127 41.6094C29.9189 41.9115 29.7614 42.1771 29.54 42.4062C29.3187 42.6328 29.0452 42.8099 28.7197 42.9375C28.3942 43.0625 28.0283 43.125 27.6221 43.125ZM35.5244 39.5781V40.4375H32.2119V39.5781H35.5244ZM32.4307 37V43H31.5088V37H32.4307ZM36.2275 37V43H35.3057V37H36.2275ZM38.833 41.6406L41.7236 37H42.7861V43H41.8643V38.3594L38.9893 43H37.9111V37H38.833V41.6406ZM44.4746 45.25V37H45.3652V37.9531H45.4746C45.5423 37.849 45.6361 37.7161 45.7559 37.5547C45.8783 37.3906 46.0527 37.2448 46.2793 37.1172C46.5085 36.987 46.8184 36.9219 47.209 36.9219C47.7142 36.9219 48.1595 37.0482 48.5449 37.3008C48.9303 37.5534 49.2311 37.9115 49.4473 38.375C49.6634 38.8385 49.7715 39.3854 49.7715 40.0156C49.7715 40.651 49.6634 41.2018 49.4473 41.668C49.2311 42.1315 48.9316 42.4909 48.5488 42.7461C48.166 42.9987 47.7246 43.125 47.2246 43.125C46.8392 43.125 46.5306 43.0612 46.2988 42.9336C46.0671 42.8034 45.8887 42.6562 45.7637 42.4922C45.6387 42.3255 45.5423 42.1875 45.4746 42.0781H45.3965V45.25H44.4746ZM45.3809 40C45.3809 40.4531 45.4473 40.8529 45.5801 41.1992C45.7129 41.543 45.9069 41.8125 46.1621 42.0078C46.4173 42.2005 46.7298 42.2969 47.0996 42.2969C47.485 42.2969 47.8066 42.1953 48.0645 41.9922C48.3249 41.7865 48.5202 41.5104 48.6504 41.1641C48.7832 40.8151 48.8496 40.4271 48.8496 40C48.8496 39.5781 48.7845 39.1979 48.6543 38.8594C48.5267 38.5182 48.3327 38.2487 48.0723 38.0508C47.8145 37.8503 47.4902 37.75 47.0996 37.75C46.7246 37.75 46.4095 37.8451 46.1543 38.0352C45.8991 38.2227 45.7064 38.4857 45.5762 38.8242C45.446 39.1602 45.3809 39.5521 45.3809 40ZM53.6152 43.125C53.0736 43.125 52.5983 42.9961 52.1895 42.7383C51.7832 42.4805 51.4655 42.1198 51.2363 41.6562C51.0098 41.1927 50.8965 40.651 50.8965 40.0312C50.8965 39.4062 51.0098 38.8607 51.2363 38.3945C51.4655 37.9284 51.7832 37.5664 52.1895 37.3086C52.5983 37.0508 53.0736 36.9219 53.6152 36.9219C54.1569 36.9219 54.6309 37.0508 55.0371 37.3086C55.446 37.5664 55.7637 37.9284 55.9902 38.3945C56.2194 38.8607 56.334 39.4062 56.334 40.0312C56.334 40.651 56.2194 41.1927 55.9902 41.6562C55.7637 42.1198 55.446 42.4805 55.0371 42.7383C54.6309 42.9961 54.1569 43.125 53.6152 43.125ZM53.6152 42.2969C54.0267 42.2969 54.3652 42.1914 54.6309 41.9805C54.8965 41.7695 55.0931 41.4922 55.2207 41.1484C55.3483 40.8047 55.4121 40.4323 55.4121 40.0312C55.4121 39.6302 55.3483 39.2565 55.2207 38.9102C55.0931 38.5638 54.8965 38.2839 54.6309 38.0703C54.3652 37.8568 54.0267 37.75 53.6152 37.75C53.2038 37.75 52.8652 37.8568 52.5996 38.0703C52.334 38.2839 52.1374 38.5638 52.0098 38.9102C51.8822 39.2565 51.8184 39.6302 51.8184 40.0312C51.8184 40.4323 51.8822 40.8047 52.0098 41.1484C52.1374 41.4922 52.334 41.7695 52.5996 41.9805C52.8652 42.1914 53.2038 42.2969 53.6152 42.2969ZM57.7412 43V37H60.1943C60.8402 37 61.3532 37.1458 61.7334 37.4375C62.1136 37.7292 62.3037 38.1146 62.3037 38.5937C62.3037 38.9583 62.1956 39.2409 61.9795 39.4414C61.7633 39.6393 61.486 39.7734 61.1475 39.8438C61.3688 39.875 61.5837 39.9531 61.792 40.0781C62.0029 40.2031 62.1774 40.375 62.3154 40.5938C62.4535 40.8099 62.5225 41.0755 62.5225 41.3906C62.5225 41.6979 62.4443 41.9727 62.2881 42.2148C62.1318 42.457 61.9079 42.6484 61.6162 42.7891C61.3245 42.9297 60.9756 43 60.5693 43H57.7412ZM58.6162 42.1562H60.5693C60.887 42.1562 61.1357 42.0807 61.3154 41.9297C61.4951 41.7786 61.585 41.5729 61.585 41.3125C61.585 41.0026 61.4951 40.7591 61.3154 40.582C61.1357 40.4023 60.887 40.3125 60.5693 40.3125H58.6162V42.1562ZM58.6162 39.5156H60.1943C60.4417 39.5156 60.654 39.4818 60.8311 39.4141C61.0081 39.3437 61.1436 39.2448 61.2373 39.1172C61.3337 38.987 61.3818 38.8333 61.3818 38.6562C61.3818 38.4036 61.2764 38.2057 61.0654 38.0625C60.8545 37.9167 60.5641 37.8438 60.1943 37.8438H58.6162V39.5156ZM63.918 43V37H64.8398V39.6094H65.4492L67.6055 37H68.793L66.3711 39.8906L68.8242 43H67.6367L65.668 40.4687H64.8398V43H63.918ZM70.748 41.6406L73.6387 37H74.7012V43H73.7793V38.3594L70.9043 43H69.8262V37H70.748V41.6406Z" fill="#869095"/>
<defs>
<clipPath id="clip0_813_8510">
<rect width="28" height="28" fill="white" transform="translate(29.625)"/>
</clipPath>
</defs>
</svg>
