<svg width="29" height="28" viewBox="0 0 29 28" fill="none" xmlns="http://www.w3.org/2000/svg">
<g id="icon">
<path id="Vector" d="M14.375 2.33301C7.94204 2.33301 2.70837 6.52017 2.70837 11.6663C2.70837 15.059 4.92271 18.1017 8.54171 19.756V25.6663L14.7717 20.9938C21.0215 20.827 26.0417 16.7063 26.0417 11.6663C26.0417 6.52017 20.808 2.33301 14.375 2.33301ZM14.375 18.6663H13.9865L10.875 20.9997V18.1798L10.1272 17.8917C6.99004 16.6842 5.04171 14.2983 5.04171 11.6663C5.04171 7.80584 9.22887 4.66634 14.375 4.66634C19.5212 4.66634 23.7084 7.80584 23.7084 11.6663C23.7084 15.5268 19.5212 18.6663 14.375 18.6663Z" fill="#869095"/>
</g>
</svg>
