<svg width="11" height="11" viewBox="0 0 11 11" fill="none" xmlns="http://www.w3.org/2000/svg">
<path fill-rule="evenodd" clip-rule="evenodd" d="M9.18632 0C9.40839 0 9.63176 0.0840493 9.80086 0.253445L10.7458 1.19277C11.0853 1.53001 11.0853 2.07737 10.7458 2.41486L10.1312 3.02681L7.95593 0.864359L8.57152 0.253445C8.74087 0.0840493 8.96399 0 9.18632 0ZM0.0302703 10.4409L0.500243 8.31843L7.08629 1.72949L9.26054 3.89091L2.69327 10.4985L0.555043 10.9732C0.507289 10.9904 0.457969 11 0.406301 11C0.183188 11 0 10.8199 0 10.5963C0 10.5434 0.00991614 10.49 0.0302703 10.4409Z" fill="#192024"/>
</svg>
