<svg width="24" height="24" viewBox="0 0 24 24" fill="none" xmlns="http://www.w3.org/2000/svg">
<path d="M14.4615 9V7.5C14.4615 7.10218 14.2995 6.72064 14.0109 6.43934C13.7224 6.15804 13.3311 6 12.9231 6H5.53846C5.13044 6 4.73912 6.15804 4.4506 6.43934C4.16209 6.72064 4 7.10218 4 7.5V16.5C4 16.8978 4.16209 17.2794 4.4506 17.5607C4.73912 17.842 5.13044 18 5.53846 18H12.9231C13.3311 18 13.7224 17.842 14.0109 17.5607C14.2995 17.2794 14.4615 16.8978 14.4615 16.5V15M16.9231 9L20 12M20 12L16.9231 15M20 12H9.5" stroke="#869095" stroke-width="1.5" stroke-linecap="round" stroke-linejoin="round"/>
</svg>
