<svg width="40" height="40" viewBox="0 0 40 40" fill="none" xmlns="http://www.w3.org/2000/svg">
  <g id="bxs-camera-plus.svg">
    <path id="Vector"
          d="M28.6695 8.68687L28.8159 8.83331H29.023H33.333C34.8952 8.83331 36.1663 10.1045 36.1663 11.6666V30C36.1663 31.5622 34.8952 32.8333 33.333 32.8333H6.66634C5.10415 32.8333 3.83301 31.5622 3.83301 30V11.6666C3.83301 10.1045 5.10415 8.83331 6.66634 8.83331H10.9763H11.1834L11.3299 8.68687L15.8416 4.1752L15.8422 4.17456C15.9502 4.0662 16.0785 3.98026 16.2198 3.92169C16.3611 3.86313 16.5126 3.83309 16.6656 3.83331H16.6663L23.333 3.83332L23.3337 3.83331C23.4867 3.83309 23.6382 3.86313 23.7795 3.92169C23.9208 3.98026 24.0492 4.0662 24.1571 4.17456L24.1578 4.1752L28.6695 8.68687ZM11.1663 20C11.1663 24.7928 15.2069 28.8333 19.9997 28.8333C24.7925 28.8333 28.833 24.7928 28.833 20C28.833 15.2054 24.7924 11.1666 19.9997 11.1666C15.2069 11.1666 11.1663 15.2054 11.1663 20Z"
          stroke="#fff"/>
  </g>
</svg>
