<svg width="29" height="28" viewBox="0 0 29 28" fill="none" xmlns="http://www.w3.org/2000/svg">
<g id="icon">
<path id="Vector" d="M9.04163 12.833H11.375V15.1663H9.04163V12.833ZM9.04163 17.4997H11.375V19.833H9.04163V17.4997ZM13.7083 12.833H16.0416V15.1663H13.7083V12.833ZM13.7083 17.4997H16.0416V19.833H13.7083V17.4997ZM18.375 12.833H20.7083V15.1663H18.375V12.833ZM18.375 17.4997H20.7083V19.833H18.375V17.4997Z" fill="#869095"/>
<path id="Vector_2" d="M6.70833 25.6663H23.0417C24.3285 25.6663 25.375 24.6198 25.375 23.333V6.99967C25.375 5.71284 24.3285 4.66634 23.0417 4.66634H20.7083V2.33301H18.375V4.66634H11.375V2.33301H9.04167V4.66634H6.70833C5.4215 4.66634 4.375 5.71284 4.375 6.99967V23.333C4.375 24.6198 5.4215 25.6663 6.70833 25.6663ZM23.0417 9.33301L23.0428 23.333H6.70833V9.33301H23.0417Z" fill="#869095"/>
</g>
</svg>
