<svg width="29" height="28" viewBox="0 0 29 28" fill="none" xmlns="http://www.w3.org/2000/svg">
<g id="icon">
<path id="Vector" d="M11.5 3C10.3463 3 9.21846 3.33955 8.25917 3.9757C7.29989 4.61186 6.55221 5.51605 6.1107 6.57394C5.66919 7.63183 5.55367 8.7959 5.77875 9.91894C6.00383 11.042 6.5594 12.0736 7.37521 12.8832C8.19102 13.6929 9.23042 14.2443 10.362 14.4677C11.4935 14.6911 12.6664 14.5764 13.7323 14.1383C14.7982 13.7001 15.7093 12.958 16.3502 12.0059C16.9912 11.0539 17.3333 9.93452 17.3333 8.78947C17.3333 7.25401 16.7188 5.78143 15.6248 4.6957C14.5308 3.60996 13.0471 3 11.5 3ZM11.5 12.2632C10.8078 12.2632 10.1311 12.0594 9.5555 11.6777C8.97993 11.296 8.53133 10.7535 8.26642 10.1188C8.00151 9.48406 7.9322 8.78562 8.06725 8.11179C8.2023 7.43796 8.53564 6.81901 9.02513 6.33321C9.51461 5.8474 10.1383 5.51657 10.8172 5.38254C11.4961 5.2485 12.1999 5.31729 12.8394 5.58021C13.4789 5.84312 14.0256 6.28835 14.4101 6.8596C14.7947 7.43084 15 8.10244 15 8.78947C15 9.71075 14.6313 10.5943 13.9749 11.2457C13.3185 11.8972 12.4283 12.2632 11.5 12.2632ZM22 25V23.8421C22 21.6925 21.1396 19.6308 19.608 18.1108C18.0765 16.5908 15.9993 15.7368 13.8333 15.7368H9.16667C7.00073 15.7368 4.92351 16.5908 3.39196 18.1108C1.86041 19.6308 1 21.6925 1 23.8421V25H3.33333V23.8421C3.33333 22.3066 3.94791 20.8341 5.04188 19.7483C6.13584 18.6626 7.61957 18.0526 9.16667 18.0526H13.8333C15.3804 18.0526 16.8642 18.6626 17.9581 19.7483C19.0521 20.8341 19.6667 22.3066 19.6667 23.8421V25H22Z" fill="#869095"/>
<path id="Vector 4" d="M20 11L27 11" stroke="#869095" stroke-width="2" stroke-linecap="round" stroke-linejoin="round"/>
<path id="Vector 5" d="M21 14L27 14" stroke="#869095" stroke-width="2" stroke-linecap="round" stroke-linejoin="round"/>
<path id="Vector 6" d="M22 17L27 17" stroke="#869095" stroke-width="2" stroke-linecap="round" stroke-linejoin="round"/>
</g>
</svg>
