<svg width="24" height="24" viewBox="0 0 24 24" fill="none" xmlns="http://www.w3.org/2000/svg">
<path d="M4.875 18.1933H6.75V21.1703C6.75 21.5053 7.13706 21.6919 7.39912 21.4833L11.5322 18.1933H16.125C17.1591 18.1933 18 17.3566 18 16.3278V8.86556C18 7.8367 17.1591 7 16.125 7H4.875C3.84094 7 3 7.8367 3 8.86556V16.3278C3 17.3566 3.84094 18.1933 4.875 18.1933Z" fill="#0DB866"/>
<path d="M19.125 4H7.875C6.84094 4 6 4.897 6 6H17.25C18.2841 6 19.125 6.897 19.125 8V16C20.1591 16 21 15.103 21 14V6C21 4.897 20.1591 4 19.125 4Z" fill="#0DB866"/>
</svg>
