<svg width="16" height="16" viewBox="0 0 16 16" fill="none" xmlns="http://www.w3.org/2000/svg">
<path d="M15.9577 5.74401C15.9074 5.59592 15.8149 5.4658 15.6915 5.36971C15.5681 5.27362 15.4192 5.21576 15.2633 5.20328L10.7025 4.84093L8.72887 0.472711C8.66602 0.33202 8.56378 0.212523 8.43451 0.128643C8.30523 0.044763 8.15444 8.4692e-05 8.00033 1.20287e-07C7.84622 -8.44514e-05 7.69537 0.0444284 7.56601 0.128166C7.43664 0.211905 7.33427 0.331289 7.27126 0.471912L5.29765 4.84093L0.736825 5.20328C0.583589 5.21542 0.437094 5.27144 0.314867 5.36465C0.19264 5.45785 0.099856 5.58429 0.0476158 5.72884C-0.00462433 5.87339 -0.0141088 6.02992 0.0202971 6.17972C0.054703 6.32951 0.131542 6.46623 0.241623 6.5735L3.61204 9.85867L2.42004 15.0196C2.38384 15.1758 2.39544 15.3393 2.45333 15.4888C2.51122 15.6384 2.61273 15.7671 2.74468 15.8582C2.87663 15.9494 3.03293 15.9988 3.19331 16C3.35368 16.0012 3.51072 15.9542 3.64404 15.8651L8.00007 12.9615L12.3561 15.8651C12.4924 15.9555 12.6531 16.0021 12.8166 15.9985C12.9801 15.9949 13.1386 15.9414 13.2708 15.845C13.403 15.7487 13.5025 15.6142 13.5559 15.4596C13.6093 15.305 13.6142 15.1378 13.5697 14.9804L12.1065 9.86107L15.7353 6.5959C15.9729 6.38153 16.0601 6.04717 15.9577 5.74401Z" fill="#0DB866"/>
</svg>
