<svg width="317" height="77" viewBox="0 0 317 77" fill="none" xmlns="http://www.w3.org/2000/svg">
<path d="M42.752 54.464C43.1787 52.2027 43.5627 50.24 43.904 48.576C44.2453 46.8693 44.544 45.2907 44.8 43.84C45.056 42.3893 45.2907 40.96 45.504 39.552C45.76 38.1013 46.016 36.5013 46.272 34.752C46.5707 32.96 46.8907 30.9333 47.232 28.672C47.616 26.368 48.064 23.616 48.576 20.416C48.704 19.6053 48.9173 19.0933 49.216 18.88C49.5147 18.624 50.2613 18.496 51.456 18.496C51.9253 18.496 52.6293 18.5387 53.568 18.624C54.5067 18.6667 55.4453 18.8587 56.384 19.2C57.3227 19.4987 58.1333 19.9893 58.816 20.672C59.5413 21.312 59.904 22.2293 59.904 23.424C59.904 24.1067 59.776 25.1733 59.52 26.624C59.264 28.032 58.9013 29.6747 58.432 31.552C58.0053 33.3867 57.4933 35.392 56.896 37.568C56.3413 39.744 55.7653 41.9413 55.168 44.16C54.5707 46.3787 53.952 48.5333 53.312 50.624C52.7147 52.7147 52.1387 54.6133 51.584 56.32C51.072 57.984 50.6027 59.392 50.176 60.544C49.7493 61.696 49.4507 62.4427 49.28 62.784C49.024 63.2533 48.6613 63.5733 48.192 63.744C47.7227 63.9147 47.2533 64 46.784 64H40.704C39.5947 64 38.656 63.7867 37.888 63.36C37.1627 62.9333 36.544 62.3787 36.032 61.696C35.5627 61.0133 35.1787 60.2453 34.88 59.392C34.624 58.5387 34.4533 57.664 34.368 56.768L31.168 28.032C30.912 29.9093 30.6133 32.0213 30.272 34.368C29.9733 36.7147 29.632 39.104 29.248 41.536C28.9067 43.968 28.5653 46.3573 28.224 48.704C27.8827 51.0507 27.5413 53.2053 27.2 55.168C26.8587 57.088 26.5387 58.7307 26.24 60.096C25.9413 61.4613 25.6853 62.3573 25.472 62.784C25.2587 63.2533 24.9173 63.5733 24.448 63.744C23.9787 63.9147 23.488 64 22.976 64H16.896C15.8293 64 14.9333 63.808 14.208 63.424C13.5253 62.9973 12.9493 62.4427 12.48 61.76C12.0107 61.0773 11.6267 60.3093 11.328 59.456C11.0293 58.56 10.7733 57.664 10.56 56.768C8.81067 49.8133 7.38133 44.096 6.272 39.616C5.20533 35.136 4.352 31.552 3.712 28.864C3.072 26.1333 2.624 24.1493 2.368 22.912C2.15467 21.632 2.048 20.7147 2.048 20.16C2.048 19.4347 2.26133 18.9653 2.688 18.752C3.15733 18.5387 4.11733 18.432 5.568 18.432C7.36 18.432 8.85333 18.56 10.048 18.816C11.2853 19.072 12.288 19.4773 13.056 20.032C13.824 20.544 14.4 21.248 14.784 22.144C15.2107 22.9973 15.488 24.0427 15.616 25.28C15.616 25.4507 15.6373 25.7067 15.68 26.048C15.7227 26.3467 15.7653 26.8587 15.808 27.584C15.8933 28.3093 16 29.312 16.128 30.592C16.2987 31.8293 16.4907 33.4933 16.704 35.584C16.96 37.6747 17.2587 40.2773 17.6 43.392C17.984 46.464 18.432 50.1547 18.944 54.464C19.4133 51.8613 19.776 49.7707 20.032 48.192C20.3307 46.5707 20.5867 45.1627 20.8 43.968C21.0133 42.7307 21.2053 41.5573 21.376 40.448C21.5467 39.296 21.7387 37.888 21.952 36.224C22.208 34.5173 22.4853 32.384 22.784 29.824C23.1253 27.264 23.552 23.936 24.064 19.84C24.1067 19.5413 24.2773 19.3067 24.576 19.136C24.9173 18.9653 25.3227 18.8373 25.792 18.752C26.2613 18.6667 26.7733 18.624 27.328 18.624C27.9253 18.5813 28.48 18.56 28.992 18.56C30.6987 18.56 32.1493 18.6667 33.344 18.88C34.5387 19.0507 35.52 19.3707 36.288 19.84C37.0987 20.3093 37.7387 20.9493 38.208 21.76C38.6773 22.528 39.0613 23.488 39.36 24.64C39.488 25.1947 39.6373 25.9627 39.808 26.944C39.9787 27.8827 40.1707 29.3973 40.384 31.488C40.64 33.5787 40.9387 36.4587 41.28 40.128C41.664 43.7547 42.1547 48.5333 42.752 54.464ZM76.908 64.64C75.0307 64.64 73.1533 64.4053 71.276 63.936C69.4413 63.4667 67.7773 62.656 66.284 61.504C64.8333 60.352 63.6387 58.816 62.7 56.896C61.7613 54.976 61.292 52.5653 61.292 49.664C61.292 48.5973 61.3773 47.3173 61.548 45.824C61.7187 44.3307 62.0387 42.7947 62.508 41.216C63.02 39.6373 63.7027 38.08 64.556 36.544C65.452 34.9653 66.604 33.5573 68.012 32.32C69.42 31.0827 71.1267 30.08 73.132 29.312C75.1373 28.544 77.5267 28.16 80.3 28.16C82.5187 28.16 84.396 28.416 85.932 28.928C87.468 29.44 88.7053 30.144 89.644 31.04C90.5827 31.8933 91.2653 32.896 91.692 34.048C92.1187 35.2 92.332 36.4373 92.332 37.76C92.332 39.7227 91.9267 41.3867 91.116 42.752C90.348 44.1173 89.324 45.2693 88.044 46.208C86.8067 47.104 85.42 47.808 83.884 48.32C82.348 48.832 80.8333 49.2373 79.34 49.536C77.8467 49.792 76.46 49.9627 75.18 50.048C73.9427 50.0907 72.9827 50.112 72.3 50.112C72.3 50.9227 72.4067 51.7333 72.62 52.544C72.876 53.312 73.2387 53.9947 73.708 54.592C74.1773 55.1893 74.796 55.68 75.564 56.064C76.332 56.448 77.2707 56.64 78.38 56.64C79.4893 56.64 80.3427 56.4693 80.94 56.128C81.58 55.744 82.092 55.3387 82.476 54.912C82.86 54.4427 83.18 54.0373 83.436 53.696C83.7347 53.312 84.1187 53.12 84.588 53.12C84.8013 53.12 85.164 53.184 85.676 53.312C86.2307 53.3973 86.7853 53.6107 87.34 53.952C87.8947 54.2933 88.3853 54.7627 88.812 55.36C89.2387 55.9573 89.452 56.7253 89.452 57.664C89.452 58.9013 89.068 59.968 88.3 60.864C87.532 61.76 86.5293 62.4853 85.292 63.04C84.0973 63.5947 82.7533 64 81.26 64.256C79.7667 64.512 78.316 64.64 76.908 64.64ZM78.124 36.672C77.1853 36.672 76.3747 36.9493 75.692 37.504C75.052 38.016 74.4973 38.6773 74.028 39.488C73.6013 40.2987 73.26 41.1947 73.004 42.176C72.7907 43.1573 72.62 44.096 72.492 44.992C75.1373 44.9493 77.2707 44.5013 78.892 43.648C80.556 42.7947 81.388 41.5787 81.388 40C81.388 39.1467 81.1107 38.3787 80.556 37.696C80.044 37.0133 79.2333 36.672 78.124 36.672ZM103.611 64.576C100.965 64.576 99.0665 63.872 97.9145 62.464C96.7625 61.056 96.1865 58.7307 96.1865 55.488C96.1865 54.976 96.2078 54.336 96.2505 53.568C96.3358 52.8 96.4212 51.8187 96.5065 50.624C96.6345 49.3867 96.7838 47.872 96.9545 46.08C97.1252 44.288 97.2958 42.112 97.4665 39.552C97.6798 36.992 97.8932 33.984 98.1065 30.528C98.3625 27.072 98.6185 23.0613 98.8745 18.496C98.9172 17.5573 99.0238 17.0027 99.1945 16.832C99.3225 16.704 99.6638 16.64 100.219 16.64H102.715C103.995 16.64 105.061 16.7893 105.915 17.088C106.768 17.3867 107.451 17.792 107.963 18.304C108.475 18.816 108.837 19.4133 109.051 20.096C109.264 20.736 109.371 21.4187 109.371 22.144C109.371 22.9973 109.307 24.2347 109.179 25.856C109.093 27.4347 108.965 29.2267 108.795 31.232C108.624 33.2373 108.453 35.328 108.283 37.504C108.112 39.68 107.941 41.7707 107.771 43.776C107.6 45.7387 107.451 47.5093 107.323 49.088C107.237 50.6667 107.195 51.8613 107.195 52.672C107.195 53.7813 107.387 54.5707 107.771 55.04C108.197 55.5093 108.645 55.8507 109.115 56.064C109.584 56.2347 110.011 56.3627 110.395 56.448C110.821 56.4907 111.035 56.6187 111.035 56.832C111.035 57.7707 110.928 58.7093 110.715 59.648C110.501 60.544 110.117 61.376 109.562 62.144C109.008 62.8693 108.24 63.4667 107.259 63.936C106.32 64.3627 105.104 64.576 103.611 64.576ZM122.923 64.576C120.278 64.576 118.379 63.872 117.227 62.464C116.075 61.056 115.499 58.7307 115.499 55.488C115.499 54.976 115.52 54.336 115.563 53.568C115.648 52.8 115.734 51.8187 115.819 50.624C115.947 49.3867 116.096 47.872 116.267 46.08C116.438 44.288 116.608 42.112 116.779 39.552C116.992 36.992 117.206 33.984 117.419 30.528C117.675 27.072 117.931 23.0613 118.187 18.496C118.23 17.5573 118.336 17.0027 118.507 16.832C118.635 16.704 118.976 16.64 119.531 16.64H122.027C123.307 16.64 124.374 16.7893 125.227 17.088C126.08 17.3867 126.763 17.792 127.275 18.304C127.787 18.816 128.15 19.4133 128.363 20.096C128.576 20.736 128.683 21.4187 128.683 22.144C128.683 22.9973 128.619 24.2347 128.491 25.856C128.406 27.4347 128.278 29.2267 128.107 31.232C127.936 33.2373 127.766 35.328 127.595 37.504C127.424 39.68 127.254 41.7707 127.083 43.776C126.912 45.7387 126.763 47.5093 126.635 49.088C126.55 50.6667 126.507 51.8613 126.507 52.672C126.507 53.7813 126.699 54.5707 127.083 55.04C127.51 55.5093 127.958 55.8507 128.427 56.064C128.896 56.2347 129.323 56.3627 129.707 56.448C130.134 56.4907 130.347 56.6187 130.347 56.832C130.347 57.7707 130.24 58.7093 130.027 59.648C129.814 60.544 129.43 61.376 128.875 62.144C128.32 62.8693 127.552 63.4667 126.571 63.936C125.632 64.3627 124.416 64.576 122.923 64.576Z" fill="#48C010"/>
<path d="M154.652 54.656C156.401 54.656 157.873 54.4 159.068 53.888C160.305 53.376 161.35 52.8 162.204 52.16C163.057 51.52 163.804 50.944 164.444 50.432C165.126 49.92 165.809 49.664 166.492 49.664C167.345 49.664 167.772 50.304 167.772 51.584C167.772 52.2667 167.686 53.0987 167.516 54.08C167.345 55.0187 167.11 56.0853 166.812 57.28C166.641 58.0053 166.214 58.7947 165.532 59.648C164.892 60.5013 163.996 61.312 162.844 62.08C161.692 62.8053 160.262 63.424 158.556 63.936C156.892 64.4053 154.972 64.64 152.796 64.64C150.62 64.64 148.444 64.32 146.268 63.68C144.092 63.04 142.15 61.952 140.444 60.416C138.737 58.88 137.35 56.8107 136.284 54.208C135.217 51.6053 134.684 48.3413 134.684 44.416C134.684 43.008 134.769 41.3867 134.94 39.552C135.153 37.6747 135.537 35.7547 136.092 33.792C136.646 31.8293 137.414 29.9093 138.396 28.032C139.42 26.112 140.721 24.4053 142.3 22.912C143.878 21.4187 145.798 20.224 148.06 19.328C150.364 18.3893 153.094 17.92 156.252 17.92C158.769 17.92 160.945 18.2187 162.78 18.816C164.657 19.4133 166.193 20.2453 167.388 21.312C168.625 22.336 169.521 23.552 170.076 24.96C170.673 26.368 170.972 27.8613 170.972 29.44C170.972 32.1707 170.161 34.176 168.54 35.456C166.961 36.6933 164.7 37.312 161.756 37.312C160.817 37.312 160.22 37.248 159.964 37.12C159.75 36.9493 159.644 36.6293 159.644 36.16C159.601 34.7093 159.558 33.4507 159.516 32.384C159.473 31.3173 159.324 30.4427 159.068 29.76C158.812 29.0347 158.406 28.5227 157.852 28.224C157.34 27.8827 156.614 27.712 155.676 27.712C154.31 27.712 153.137 28.0107 152.156 28.608C151.217 29.1627 150.406 29.9093 149.724 30.848C149.084 31.744 148.55 32.768 148.124 33.92C147.74 35.072 147.42 36.2453 147.164 37.44C146.95 38.6347 146.801 39.7867 146.716 40.896C146.673 42.0053 146.652 42.9653 146.652 43.776C146.652 47.7013 147.292 50.496 148.572 52.16C149.894 53.824 151.921 54.656 154.652 54.656ZM188.21 64.64C185.266 64.64 182.813 64.2347 180.85 63.424C178.93 62.5707 177.394 61.4187 176.242 59.968C175.09 58.5173 174.279 56.832 173.81 54.912C173.341 52.9493 173.106 50.8587 173.106 48.64C173.106 46.08 173.405 43.584 174.002 41.152C174.642 38.6773 175.709 36.48 177.202 34.56C178.695 32.64 180.658 31.104 183.09 29.952C185.565 28.7573 188.637 28.16 192.306 28.16C197.682 28.16 201.522 29.4827 203.826 32.128C206.173 34.7307 207.346 38.4 207.346 43.136C207.346 44.4587 207.239 45.9307 207.026 47.552C206.855 49.1307 206.493 50.7093 205.938 52.288C205.426 53.8667 204.701 55.4027 203.762 56.896C202.866 58.3893 201.714 59.712 200.306 60.864C198.898 62.016 197.191 62.9333 195.186 63.616C193.223 64.2987 190.898 64.64 188.21 64.64ZM191.218 36.672C189.597 36.672 188.295 37.0987 187.314 37.952C186.375 38.7627 185.65 39.7653 185.138 40.96C184.669 42.112 184.349 43.3493 184.178 44.672C184.05 45.952 183.986 47.04 183.986 47.936C183.986 50.752 184.434 52.8213 185.33 54.144C186.226 55.4667 187.506 56.128 189.17 56.128C190.663 56.128 191.879 55.6587 192.818 54.72C193.799 53.7813 194.546 52.6507 195.058 51.328C195.613 50.0053 195.975 48.6187 196.146 47.168C196.359 45.7173 196.466 44.5013 196.466 43.52C196.466 41.3867 196.061 39.7227 195.25 38.528C194.482 37.2907 193.138 36.672 191.218 36.672ZM210.204 56.128C210.204 52.288 211.932 49.28 215.388 47.104C218.844 44.928 223.943 43.7547 230.684 43.584C230.727 43.1147 230.748 42.7307 230.748 42.432C230.791 42.0907 230.812 41.6853 230.812 41.216C230.812 39.8507 230.556 38.7627 230.044 37.952C229.532 37.1413 228.465 36.736 226.844 36.736C225.948 36.736 225.223 36.864 224.668 37.12C224.113 37.376 223.665 37.7387 223.324 38.208C222.983 38.6347 222.705 39.168 222.492 39.808C222.279 40.448 222.087 41.152 221.916 41.92C221.831 42.304 221.639 42.56 221.34 42.688C221.041 42.7733 220.572 42.816 219.932 42.816C215.58 42.816 213.404 41.1733 213.404 37.888C213.404 36.5653 213.703 35.3067 214.3 34.112C214.94 32.9173 215.857 31.8933 217.052 31.04C218.289 30.144 219.825 29.44 221.66 28.928C223.495 28.416 225.628 28.16 228.06 28.16C232.796 28.16 236.231 29.1413 238.364 31.104C240.497 33.0667 241.564 35.84 241.564 39.424C241.564 39.8933 241.5 40.7467 241.372 41.984C241.287 43.1787 241.159 44.4587 240.988 45.824C240.86 47.1467 240.732 48.4053 240.604 49.6C240.519 50.7947 240.476 51.6267 240.476 52.096C240.476 53.1627 240.668 53.9307 241.052 54.4C241.436 54.8267 241.863 55.1253 242.332 55.296C242.844 55.4667 243.292 55.5947 243.676 55.68C244.06 55.7653 244.252 55.9787 244.252 56.32C244.252 57.2587 244.124 58.2187 243.868 59.2C243.612 60.1813 243.185 61.0773 242.588 61.888C242.033 62.6987 241.244 63.36 240.22 63.872C239.239 64.384 238.023 64.64 236.572 64.64C234.524 64.64 232.988 64.1493 231.964 63.168C230.94 62.1867 230.257 60.8213 229.916 59.072C228.892 60.5653 227.548 61.8667 225.884 62.976C224.263 64.0853 222.129 64.64 219.484 64.64C218.204 64.64 216.988 64.4907 215.836 64.192C214.727 63.8933 213.745 63.4027 212.892 62.72C212.081 62.0373 211.42 61.1627 210.908 60.096C210.439 58.9867 210.204 57.664 210.204 56.128ZM230.108 48.832C228.999 48.832 227.911 48.9173 226.844 49.088C225.777 49.2587 224.817 49.536 223.964 49.92C223.153 50.2613 222.492 50.7307 221.98 51.328C221.468 51.9253 221.212 52.6507 221.212 53.504C221.212 54.4853 221.511 55.168 222.108 55.552C222.748 55.936 223.431 56.128 224.156 56.128C224.839 56.128 225.521 55.9787 226.204 55.68C226.887 55.3813 227.484 54.9333 227.996 54.336C228.551 53.696 229.02 52.928 229.404 52.032C229.788 51.136 230.023 50.0693 230.108 48.832ZM264.315 56.128C265.552 56.128 266.619 55.9573 267.515 55.616C268.453 55.2747 269.264 54.8907 269.947 54.464C270.629 54.0373 271.205 53.6533 271.675 53.312C272.144 52.9707 272.571 52.8 272.955 52.8C273.936 52.8 274.427 53.44 274.427 54.72C274.427 55.0187 274.363 55.4453 274.235 56C274.107 56.512 273.936 57.0667 273.723 57.664C273.509 58.2187 273.275 58.752 273.019 59.264C272.805 59.776 272.592 60.16 272.379 60.416C272.165 60.6293 271.781 60.9707 271.227 61.44C270.715 61.9093 270.011 62.3787 269.115 62.848C268.219 63.3173 267.173 63.7227 265.979 64.064C264.784 64.448 263.461 64.64 262.01 64.64C260.389 64.64 258.704 64.4053 256.955 63.936C255.248 63.424 253.691 62.5707 252.283 61.376C250.875 60.1387 249.701 58.496 248.763 56.448C247.867 54.3573 247.419 51.7547 247.419 48.64C247.419 47.5307 247.483 46.272 247.611 44.864C247.781 43.4133 248.101 41.9413 248.571 40.448C249.04 38.912 249.659 37.4187 250.427 35.968C251.237 34.4747 252.304 33.152 253.627 32C254.949 30.848 256.528 29.9307 258.363 29.248C260.24 28.5227 262.459 28.16 265.019 28.16C267.109 28.16 268.901 28.416 270.395 28.928C271.931 29.3973 273.189 30.0587 274.171 30.912C275.152 31.7227 275.877 32.6827 276.347 33.792C276.859 34.9013 277.115 36.096 277.115 37.376C277.115 39.68 276.389 41.3867 274.939 42.496C273.488 43.5627 271.44 44.096 268.795 44.096C268.155 44.096 267.707 44.0533 267.451 43.968C267.237 43.84 267.131 43.584 267.131 43.2C267.131 42.176 267.109 41.2587 267.067 40.448C267.024 39.6373 266.896 38.9547 266.683 38.4C266.512 37.8453 266.235 37.4187 265.851 37.12C265.467 36.8213 264.912 36.672 264.187 36.672C262.864 36.672 261.797 37.0987 260.987 37.952C260.219 38.8053 259.621 39.8507 259.195 41.088C258.811 42.2827 258.555 43.52 258.427 44.8C258.341 46.08 258.299 47.1467 258.299 48C258.299 51.0293 258.768 53.1413 259.707 54.336C260.688 55.5307 262.224 56.128 264.315 56.128ZM301.935 56.064C302.063 54.656 302.191 53.184 302.319 51.648C302.489 50.112 302.617 48.64 302.703 47.232C302.831 45.824 302.937 44.5653 303.023 43.456C303.108 42.3467 303.151 41.536 303.151 41.024C303.151 39.9147 302.873 38.9333 302.319 38.08C301.807 37.184 300.783 36.736 299.247 36.736C297.199 36.736 295.535 37.696 294.255 39.616C293.017 41.536 292.292 44.096 292.079 47.296C291.993 48.192 291.887 49.4507 291.759 51.072C291.631 52.6507 291.503 54.272 291.375 55.936C291.247 57.5573 291.119 59.0293 290.991 60.352C290.905 61.632 290.863 62.4213 290.863 62.72C290.863 63.232 290.756 63.5733 290.543 63.744C290.372 63.9147 290.009 64 289.455 64H287.151C285.828 64 284.74 63.872 283.887 63.616C283.076 63.3173 282.415 62.912 281.903 62.4C281.433 61.888 281.092 61.2693 280.879 60.544C280.708 59.776 280.623 58.9013 280.623 57.92C280.623 56.9813 280.687 55.68 280.815 54.016C280.985 52.3093 281.199 49.984 281.455 47.04C281.711 44.0533 282.009 40.256 282.351 35.648C282.692 31.04 283.055 25.3227 283.439 18.496C283.481 17.5573 283.588 17.0027 283.759 16.832C283.887 16.704 284.228 16.64 284.783 16.64H287.279C288.559 16.64 289.625 16.7893 290.479 17.088C291.332 17.3867 292.015 17.792 292.527 18.304C293.039 18.816 293.401 19.4133 293.615 20.096C293.828 20.736 293.935 21.4187 293.935 22.144C293.935 22.912 293.849 24.3413 293.679 26.432C293.551 28.5227 293.38 30.976 293.167 33.792C294.447 31.6587 295.855 30.1867 297.391 29.376C298.969 28.5653 300.953 28.16 303.343 28.16C305.135 28.16 306.692 28.352 308.015 28.736C309.337 29.12 310.425 29.7813 311.279 30.72C312.175 31.616 312.836 32.8107 313.263 34.304C313.689 35.7547 313.903 37.568 313.903 39.744C313.903 40.4267 313.839 41.6 313.711 43.264C313.583 44.928 313.412 46.8267 313.199 48.96C313.028 51.0933 312.836 53.3333 312.623 55.68C312.452 57.984 312.303 60.096 312.175 62.016C312.132 62.4853 312.089 62.848 312.047 63.104C312.004 63.36 311.919 63.552 311.791 63.68C311.705 63.808 311.556 63.8933 311.343 63.936C311.129 63.9787 310.831 64 310.447 64H308.399C307.033 64 305.924 63.872 305.071 63.616C304.217 63.36 303.556 62.9973 303.087 62.528C302.617 62.0587 302.276 61.4827 302.063 60.8C301.892 60.0747 301.807 59.264 301.807 58.368C301.807 57.9413 301.807 57.536 301.807 57.152C301.849 56.768 301.892 56.4053 301.935 56.064Z" fill="#5CADDC"/>
</svg>
