<svg width="12" height="12" viewBox="0 0 12 12" fill="none" xmlns="http://www.w3.org/2000/svg">
<path fill-rule="evenodd" clip-rule="evenodd" d="M10.0211 0C10.2633 0 10.507 0.0916885 10.6915 0.27648L11.7222 1.30118C12.0926 1.66907 12.0926 2.26618 11.7222 2.63434L11.0518 3.30192L8.67884 0.942919L9.35038 0.27648C9.53513 0.0916885 9.77852 0 10.0211 0ZM0.0330215 11.3902L0.545709 9.07474L7.73036 1.88694L10.1022 4.24481L2.93806 11.453L0.60549 11.9709C0.553396 11.9895 0.499593 12 0.443229 12C0.199837 12 0 11.8036 0 11.5597C0 11.5019 0.0108174 11.4436 0.0330215 11.3902Z" fill="#656565"/>
</svg>
