<svg width="24" height="24" viewBox="0 0 24 24" fill="none" xmlns="http://www.w3.org/2000/svg">
<g id="icon/phone">
<path id="Vector" d="M17.7071 12.2932C17.6143 12.2003 17.5041 12.1265 17.3828 12.0762C17.2615 12.0259 17.1314 12 17.0001 12C16.8688 12 16.7387 12.0259 16.6174 12.0762C16.4961 12.1265 16.3859 12.2003 16.2931 12.2932L14.6991 13.8872C13.9601 13.6672 12.5811 13.1672 11.7071 12.2932C10.8331 11.4192 10.3331 10.0402 10.1131 9.3012L11.7071 7.7072C11.8 7.61441 11.8738 7.50421 11.9241 7.38289C11.9744 7.26158 12.0003 7.13153 12.0003 7.0002C12.0003 6.86887 11.9744 6.73882 11.9241 6.61751C11.8738 6.49619 11.8 6.38599 11.7071 6.2932L7.70709 2.2932C7.6143 2.20026 7.5041 2.12652 7.38278 2.07621C7.26147 2.0259 7.13142 2 7.00009 2C6.86876 2 6.73871 2.0259 6.6174 2.07621C6.49608 2.12652 6.38588 2.20026 6.29309 2.2932L3.58109 5.0052C3.20109 5.3852 2.98709 5.9072 2.99509 6.4402C3.01809 7.8642 3.39509 12.8102 7.29309 16.7082C11.1911 20.6062 16.1371 20.9822 17.5621 21.0062H17.5901C18.1181 21.0062 18.6171 20.7982 18.9951 20.4202L21.7071 17.7082C21.8 17.6154 21.8738 17.5052 21.9241 17.3839C21.9744 17.2626 22.0003 17.1325 22.0003 17.0012C22.0003 16.8699 21.9744 16.7398 21.9241 16.6185C21.8738 16.4972 21.8 16.387 21.7071 16.2942L17.7071 12.2932ZM17.5801 19.0052C16.3321 18.9842 12.0621 18.6492 8.70709 15.2932C5.34109 11.9272 5.01509 7.6422 4.99509 6.4192L7.00009 4.4142L9.58609 7.0002L8.29309 8.2932C8.17555 8.41065 8.08913 8.55554 8.04164 8.71477C7.99415 8.874 7.98709 9.04256 8.02109 9.2052C8.04509 9.3202 8.63209 12.0472 10.2921 13.7072C11.9521 15.3672 14.6791 15.9542 14.7941 15.9782C14.9566 16.0132 15.1254 16.0067 15.2847 15.9593C15.4441 15.9119 15.589 15.8252 15.7061 15.7072L17.0001 14.4142L19.5861 17.0002L17.5801 19.0052Z" fill="#94BED5"/>
</g>
</svg>
