<svg width="49" height="48" viewBox="0 0 49 48" fill="none" xmlns="http://www.w3.org/2000/svg">
<path d="M0.5 24C0.5 37.2548 11.2452 48 24.5 48C37.7548 48 48.5 37.2548 48.5 24C48.5 10.7452 37.7548 0 24.5 0C11.2452 0 0.5 10.7452 0.5 24Z" fill="#0088CC"/>
<path d="M12.6499 23.5624C19.0923 20.7556 23.3883 18.9051 25.5378 18.0111C31.675 15.4584 32.9503 15.0149 33.7815 15.0001C33.9643 14.9971 34.3731 15.0424 34.6379 15.2572C34.8614 15.4386 34.9229 15.6837 34.9524 15.8557C34.9818 16.0277 35.0185 16.4195 34.9893 16.7257C34.6567 20.2201 33.2177 28.7002 32.4856 32.6141C32.1758 34.2702 31.5658 34.8254 30.9753 34.8798C29.6919 34.9979 28.7174 34.0317 27.4744 33.2169C25.5294 31.9419 24.4305 31.1482 22.5425 29.904C20.3606 28.4662 21.7751 27.6759 23.0185 26.3844C23.344 26.0464 28.9985 20.9032 29.1079 20.4366C29.1216 20.3783 29.1343 20.1608 29.0051 20.0459C28.8759 19.9311 28.6851 19.9703 28.5475 20.0016C28.3524 20.0458 25.2452 22.0996 19.2258 26.1628C18.3439 26.7685 17.545 27.0636 16.8292 27.0481C16.0402 27.0311 14.5223 26.602 13.394 26.2352C12.01 25.7853 10.91 25.5474 11.0058 24.7834C11.0557 24.3854 11.6037 23.9785 12.6499 23.5624Z" fill="white"/>
</svg>
