<svg width="49" height="48" viewBox="0 0 49 48" fill="none" xmlns="http://www.w3.org/2000/svg">
<path d="M0.5 24C0.5 37.2548 11.2452 48 24.5 48C37.7548 48 48.5 37.2548 48.5 24C48.5 10.7452 37.7548 0 24.5 0C11.2452 0 0.5 10.7452 0.5 24Z" fill="#25D366"/>
<path fill-rule="evenodd" clip-rule="evenodd" d="M32.9 15.45C30.65 13.2 27.65 12 24.5 12C17.9 12 12.5 17.4 12.5 24C12.5 26.1 13.1 28.2 14.15 30L12.5 36L18.8 34.35C20.6 35.25 22.55 35.85 24.5 35.85C31.1 35.85 36.5 30.45 36.5 23.85C36.5 20.7 35.15 17.7 32.9 15.45ZM24.5 33.9C22.7 33.9 20.9 33.45 19.4 32.55L19.1 32.4L15.35 33.45L16.4 29.85L16.1 29.4C15.05 27.75 14.6 25.95 14.6 24.15C14.6 18.75 19.1 14.25 24.5 14.25C27.2 14.25 29.6 15.3 31.55 17.1C33.5 19.05 34.4 21.45 34.4 24.15C34.4 29.4 30.05 33.9 24.5 33.9ZM29.9 26.4C29.6 26.25 28.1 25.5 27.8 25.5C27.5 25.35 27.35 25.35 27.2 25.65C27.05 25.95 26.45 26.55 26.3 26.85C26.15 27 26 27 25.7 27C25.4 26.85 24.5 26.55 23.3 25.5C22.4 24.75 21.8 23.7 21.65 23.4C21.5 23.1 21.65 22.95 21.8 22.8C21.95 22.65 22.1 22.5 22.25 22.35C22.4 22.2 22.4 22.05 22.55 21.9C22.7 21.75 22.55 21.6 22.55 21.45C22.55 21.3 21.95 19.8 21.65 19.2C21.5 18.75 21.2 18.75 21.05 18.75C20.9 18.75 20.75 18.75 20.45 18.75C20.3 18.75 20 18.75 19.7 19.05C19.4 19.35 18.65 20.1 18.65 21.6C18.65 23.1 19.7 24.45 19.85 24.75C20 24.9 21.95 28.05 24.95 29.25C27.5 30.3 27.95 30 28.55 30C29.15 30 30.35 29.25 30.5 28.65C30.8 27.9 30.8 27.3 30.65 27.3C30.5 26.55 30.2 26.55 29.9 26.4Z" fill="white"/>
</svg>
