<svg width="32" height="32" viewBox="0 0 32 32" fill="none" xmlns="http://www.w3.org/2000/svg">
<path d="M31.3312 8.49796C30.9632 7.12124 29.8788 6.0368 28.502 5.6688C26.0068 5 16 5 16 5C16 5 5.99324 5 3.49796 5.6688C2.12124 6.0368 1.0368 7.12124 0.6688 8.49796C0 10.9932 0 16.2 0 16.2C0 16.2 0 21.4068 0.6688 23.902C1.0368 25.2788 2.12124 26.3632 3.49796 26.7312C5.99324 27.4 16 27.4 16 27.4C16 27.4 26.0068 27.4 28.502 26.7312C29.8788 26.3632 30.9632 25.2788 31.3312 23.902C32 21.4068 32 16.2 32 16.2C32 16.2 32 10.9932 31.3312 8.49796ZM12.8 21V11.4L21.1136 16.2L12.8 21Z" fill="#5CADDC"/>
</svg>
