<svg width="147" height="48" viewBox="0 0 147 48" fill="none" xmlns="http://www.w3.org/2000/svg">
<path d="M4.46168 37V1.77051H13.4216V29.7979H28.3875V37H4.46168ZM49.5107 37.9521C38.8661 37.9521 32.1278 30.8477 32.1278 19.3975V19.3486C32.1278 7.92285 38.915 0.818359 49.5107 0.818359C60.082 0.818359 66.8691 7.92285 66.8691 19.3486V19.3975C66.8691 30.8477 60.1064 37.9521 49.5107 37.9521ZM49.5107 30.5303C54.4423 30.5303 57.7382 26.1846 57.7382 19.3975V19.3486C57.7382 12.5859 54.4423 8.24023 49.5107 8.24023C44.5546 8.24023 41.2343 12.5859 41.2343 19.3486V19.3975C41.2343 26.1846 44.5058 30.5303 49.5107 30.5303ZM88.8223 37.9521C77.9825 37.9521 71.4639 30.9453 71.4639 19.373V19.3242C71.4639 7.89844 78.0069 0.818359 88.5782 0.818359C97.172 0.818359 103.544 5.84766 104.447 13.0254L104.472 13.2695H95.6339L95.585 13.0498C94.8282 10.0957 92.1182 8.24023 88.5782 8.24023C83.5733 8.24023 80.5704 12.3906 80.5704 19.2266V19.2754C80.5704 26.2334 83.8907 30.5303 89.0177 30.5303C93.0948 30.5303 95.9024 28.1377 96.1466 24.5244L96.171 23.9385H89.7257V17.7861H104.814V22.3271C104.814 32.0195 98.7833 37.9521 88.8223 37.9521ZM126.816 37.9521C116.171 37.9521 109.433 30.8477 109.433 19.3975V19.3486C109.433 7.92285 116.22 0.818359 126.816 0.818359C137.387 0.818359 144.174 7.92285 144.174 19.3486V19.3975C144.174 30.8477 137.411 37.9521 126.816 37.9521ZM126.816 30.5303C131.747 30.5303 135.043 26.1846 135.043 19.3975V19.3486C135.043 12.5859 131.747 8.24023 126.816 8.24023C121.86 8.24023 118.539 12.5859 118.539 19.3486V19.3975C118.539 26.1846 121.811 30.5303 126.816 30.5303Z" fill="black"/>
</svg>
