<svg width="165" height="160" viewBox="0 0 165 160" fill="none" xmlns="http://www.w3.org/2000/svg">
<path d="M138.141 48.7471C145.901 27.3523 133.276 8.71145 129.953 4L59.5934 108.156C54.4451 115.777 39.0002 138.64 44.7441 142.52C51.4439 147.046 71.6449 135.428 78.3061 121.074C89.4401 97.082 93.3432 94.4458 98.7327 90.8056L98.7705 90.7801C104.353 87.0095 128.44 75.4907 138.141 48.7471Z" fill="#F7F7F6" stroke="#D5D5CF" stroke-width="5" stroke-linejoin="round"/>
<path d="M46.6966 3.94636L36.7885 11.1954L20.9355 22.7938L11.0273 30.0428C20.0659 50.7136 36.7329 85.9694 63.3327 80.7434C74.3652 83.3479 98.642 158.114 120.44 142.166C142.238 126.218 78.3285 80.4483 79.1857 69.145C92.2184 45.375 63.6617 18.818 46.6966 3.94636Z" fill="#F7F7F6"/>
<path d="M36.7885 11.1954L60.5309 43.6472M36.7885 11.1954L46.6966 3.94636C63.6617 18.818 92.2184 45.375 79.1857 69.145C78.3285 80.4483 142.238 126.218 120.44 142.166C98.642 158.114 74.3652 83.3479 63.3327 80.7434C36.7329 85.9694 20.0659 50.7136 11.0273 30.0428L20.9355 22.7938M36.7885 11.1954L20.9355 22.7938M20.9355 22.7938L44.6779 55.2456" stroke="#D5D5CF" stroke-width="5" stroke-linecap="round" stroke-linejoin="round"/>
</svg>
