<svg width="159" height="38" viewBox="0 0 159 38" fill="none" xmlns="http://www.w3.org/2000/svg">
<path d="M21.376 27.232C21.5893 26.1013 21.7813 25.12 21.952 24.288C22.1227 23.4347 22.272 22.6453 22.4 21.92C22.528 21.1947 22.6453 20.48 22.752 19.776C22.88 19.0507 23.008 18.2507 23.136 17.376C23.2853 16.48 23.4453 15.4667 23.616 14.336C23.808 13.184 24.032 11.808 24.288 10.208C24.352 9.80267 24.4587 9.54667 24.608 9.44C24.7573 9.312 25.1307 9.248 25.728 9.248C25.9627 9.248 26.3147 9.26933 26.784 9.312C27.2533 9.33333 27.7227 9.42933 28.192 9.6C28.6613 9.74933 29.0667 9.99467 29.408 10.336C29.7707 10.656 29.952 11.1147 29.952 11.712C29.952 12.0533 29.888 12.5867 29.76 13.312C29.632 14.016 29.4507 14.8373 29.216 15.776C29.0027 16.6933 28.7467 17.696 28.448 18.784C28.1707 19.872 27.8827 20.9707 27.584 22.08C27.2853 23.1893 26.976 24.2667 26.656 25.312C26.3573 26.3573 26.0693 27.3067 25.792 28.16C25.536 28.992 25.3013 29.696 25.088 30.272C24.8747 30.848 24.7253 31.2213 24.64 31.392C24.512 31.6267 24.3307 31.7867 24.096 31.872C23.8613 31.9573 23.6267 32 23.392 32H20.352C19.7973 32 19.328 31.8933 18.944 31.68C18.5813 31.4667 18.272 31.1893 18.016 30.848C17.7813 30.5067 17.5893 30.1227 17.44 29.696C17.312 29.2693 17.2267 28.832 17.184 28.384L15.584 14.016C15.456 14.9547 15.3067 16.0107 15.136 17.184C14.9867 18.3573 14.816 19.552 14.624 20.768C14.4533 21.984 14.2827 23.1787 14.112 24.352C13.9413 25.5253 13.7707 26.6027 13.6 27.584C13.4293 28.544 13.2693 29.3653 13.12 30.048C12.9707 30.7307 12.8427 31.1787 12.736 31.392C12.6293 31.6267 12.4587 31.7867 12.224 31.872C11.9893 31.9573 11.744 32 11.488 32H8.448C7.91467 32 7.46667 31.904 7.104 31.712C6.76267 31.4987 6.47467 31.2213 6.24 30.88C6.00533 30.5387 5.81333 30.1547 5.664 29.728C5.51467 29.28 5.38667 28.832 5.28 28.384C4.40533 24.9067 3.69067 22.048 3.136 19.808C2.60267 17.568 2.176 15.776 1.856 14.432C1.536 13.0667 1.312 12.0747 1.184 11.456C1.07733 10.816 1.024 10.3573 1.024 10.08C1.024 9.71733 1.13067 9.48267 1.344 9.376C1.57867 9.26933 2.05867 9.216 2.784 9.216C3.68 9.216 4.42667 9.28 5.024 9.408C5.64267 9.536 6.144 9.73867 6.528 10.016C6.912 10.272 7.2 10.624 7.392 11.072C7.60533 11.4987 7.744 12.0213 7.808 12.64C7.808 12.7253 7.81867 12.8533 7.84 13.024C7.86133 13.1733 7.88267 13.4293 7.904 13.792C7.94667 14.1547 8 14.656 8.064 15.296C8.14933 15.9147 8.24533 16.7467 8.352 17.792C8.48 18.8373 8.62933 20.1387 8.8 21.696C8.992 23.232 9.216 25.0773 9.472 27.232C9.70667 25.9307 9.888 24.8853 10.016 24.096C10.1653 23.2853 10.2933 22.5813 10.4 21.984C10.5067 21.3653 10.6027 20.7787 10.688 20.224C10.7733 19.648 10.8693 18.944 10.976 18.112C11.104 17.2587 11.2427 16.192 11.392 14.912C11.5627 13.632 11.776 11.968 12.032 9.92C12.0533 9.77067 12.1387 9.65333 12.288 9.568C12.4587 9.48267 12.6613 9.41867 12.896 9.376C13.1307 9.33333 13.3867 9.312 13.664 9.312C13.9627 9.29067 14.24 9.28 14.496 9.28C15.3493 9.28 16.0747 9.33333 16.672 9.44C17.2693 9.52533 17.76 9.68533 18.144 9.92C18.5493 10.1547 18.8693 10.4747 19.104 10.88C19.3387 11.264 19.5307 11.744 19.68 12.32C19.744 12.5973 19.8187 12.9813 19.904 13.472C19.9893 13.9413 20.0853 14.6987 20.192 15.744C20.32 16.7893 20.4693 18.2293 20.64 20.064C20.832 21.8773 21.0773 24.2667 21.376 27.232ZM38.454 32.32C37.5153 32.32 36.5767 32.2027 35.638 31.968C34.7207 31.7333 33.8887 31.328 33.142 30.752C32.4167 30.176 31.8193 29.408 31.35 28.448C30.8807 27.488 30.646 26.2827 30.646 24.832C30.646 24.2987 30.6887 23.6587 30.774 22.912C30.8593 22.1653 31.0193 21.3973 31.254 20.608C31.51 19.8187 31.8513 19.04 32.278 18.272C32.726 17.4827 33.302 16.7787 34.006 16.16C34.71 15.5413 35.5633 15.04 36.566 14.656C37.5687 14.272 38.7633 14.08 40.15 14.08C41.2593 14.08 42.198 14.208 42.966 14.464C43.734 14.72 44.3527 15.072 44.822 15.52C45.2913 15.9467 45.6327 16.448 45.846 17.024C46.0593 17.6 46.166 18.2187 46.166 18.88C46.166 19.8613 45.9633 20.6933 45.558 21.376C45.174 22.0587 44.662 22.6347 44.022 23.104C43.4033 23.552 42.71 23.904 41.942 24.16C41.174 24.416 40.4167 24.6187 39.67 24.768C38.9233 24.896 38.23 24.9813 37.59 25.024C36.9713 25.0453 36.4913 25.056 36.15 25.056C36.15 25.4613 36.2033 25.8667 36.31 26.272C36.438 26.656 36.6193 26.9973 36.854 27.296C37.0887 27.5947 37.398 27.84 37.782 28.032C38.166 28.224 38.6353 28.32 39.19 28.32C39.7447 28.32 40.1713 28.2347 40.47 28.064C40.79 27.872 41.046 27.6693 41.238 27.456C41.43 27.2213 41.59 27.0187 41.718 26.848C41.8673 26.656 42.0593 26.56 42.294 26.56C42.4007 26.56 42.582 26.592 42.838 26.656C43.1153 26.6987 43.3927 26.8053 43.67 26.976C43.9473 27.1467 44.1927 27.3813 44.406 27.68C44.6193 27.9787 44.726 28.3627 44.726 28.832C44.726 29.4507 44.534 29.984 44.15 30.432C43.766 30.88 43.2647 31.2427 42.646 31.52C42.0487 31.7973 41.3767 32 40.63 32.128C39.8833 32.256 39.158 32.32 38.454 32.32ZM39.062 18.336C38.5927 18.336 38.1873 18.4747 37.846 18.752C37.526 19.008 37.2487 19.3387 37.014 19.744C36.8007 20.1493 36.63 20.5973 36.502 21.088C36.3953 21.5787 36.31 22.048 36.246 22.496C37.5687 22.4747 38.6353 22.2507 39.446 21.824C40.278 21.3973 40.694 20.7893 40.694 20C40.694 19.5733 40.5553 19.1893 40.278 18.848C40.022 18.5067 39.6167 18.336 39.062 18.336ZM51.8053 32.288C50.4826 32.288 49.5333 31.936 48.9573 31.232C48.3813 30.528 48.0933 29.3653 48.0933 27.744C48.0933 27.488 48.1039 27.168 48.1253 26.784C48.1679 26.4 48.2106 25.9093 48.2533 25.312C48.3173 24.6933 48.3919 23.936 48.4773 23.04C48.5626 22.144 48.6479 21.056 48.7333 19.776C48.8399 18.496 48.9466 16.992 49.0533 15.264C49.1813 13.536 49.3093 11.5307 49.4373 9.248C49.4586 8.77867 49.5119 8.50133 49.5973 8.416C49.6613 8.352 49.8319 8.32 50.1093 8.32H51.3573C51.9973 8.32 52.5306 8.39467 52.9573 8.544C53.3839 8.69333 53.7253 8.896 53.9813 9.152C54.2373 9.408 54.4186 9.70667 54.5253 10.048C54.6319 10.368 54.6853 10.7093 54.6853 11.072C54.6853 11.4987 54.6533 12.1173 54.5893 12.928C54.5466 13.7173 54.4826 14.6133 54.3973 15.616C54.3119 16.6187 54.2266 17.664 54.1413 18.752C54.0559 19.84 53.9706 20.8853 53.8853 21.888C53.7999 22.8693 53.7253 23.7547 53.6613 24.544C53.6186 25.3333 53.5973 25.9307 53.5973 26.336C53.5973 26.8907 53.6933 27.2853 53.8853 27.52C54.0986 27.7547 54.3226 27.9253 54.5573 28.032C54.7919 28.1173 55.0053 28.1813 55.1973 28.224C55.4106 28.2453 55.5173 28.3093 55.5173 28.416C55.5173 28.8853 55.4639 29.3547 55.3573 29.824C55.2506 30.272 55.0586 30.688 54.7812 31.072C54.5039 31.4347 54.1199 31.7333 53.6293 31.968C53.1599 32.1813 52.5519 32.288 51.8053 32.288ZM61.4615 32.288C60.1388 32.288 59.1895 31.936 58.6135 31.232C58.0375 30.528 57.7495 29.3653 57.7495 27.744C57.7495 27.488 57.7602 27.168 57.7815 26.784C57.8242 26.4 57.8668 25.9093 57.9095 25.312C57.9735 24.6933 58.0482 23.936 58.1335 23.04C58.2188 22.144 58.3042 21.056 58.3895 19.776C58.4962 18.496 58.6028 16.992 58.7095 15.264C58.8375 13.536 58.9655 11.5307 59.0935 9.248C59.1148 8.77867 59.1682 8.50133 59.2535 8.416C59.3175 8.352 59.4882 8.32 59.7655 8.32H61.0135C61.6535 8.32 62.1868 8.39467 62.6135 8.544C63.0402 8.69333 63.3815 8.896 63.6375 9.152C63.8935 9.408 64.0748 9.70667 64.1815 10.048C64.2882 10.368 64.3415 10.7093 64.3415 11.072C64.3415 11.4987 64.3095 12.1173 64.2455 12.928C64.2028 13.7173 64.1388 14.6133 64.0535 15.616C63.9682 16.6187 63.8828 17.664 63.7975 18.752C63.7122 19.84 63.6268 20.8853 63.5415 21.888C63.4562 22.8693 63.3815 23.7547 63.3175 24.544C63.2748 25.3333 63.2535 25.9307 63.2535 26.336C63.2535 26.8907 63.3495 27.2853 63.5415 27.52C63.7548 27.7547 63.9788 27.9253 64.2135 28.032C64.4482 28.1173 64.6615 28.1813 64.8535 28.224C65.0668 28.2453 65.1735 28.3093 65.1735 28.416C65.1735 28.8853 65.1202 29.3547 65.0135 29.824C64.9068 30.272 64.7148 30.688 64.4375 31.072C64.1602 31.4347 63.7762 31.7333 63.2855 31.968C62.8162 32.1813 62.2082 32.288 61.4615 32.288Z" fill="#48C010"/>
<path d="M77.3258 27.328C78.2004 27.328 78.9364 27.2 79.5338 26.944C80.1524 26.688 80.6751 26.4 81.1018 26.08C81.5284 25.76 81.9018 25.472 82.2218 25.216C82.5631 24.96 82.9044 24.832 83.2458 24.832C83.6724 24.832 83.8858 25.152 83.8858 25.792C83.8858 26.1333 83.8431 26.5493 83.7578 27.04C83.6724 27.5093 83.5551 28.0427 83.4058 28.64C83.3204 29.0027 83.1071 29.3973 82.7658 29.824C82.4458 30.2507 81.9978 30.656 81.4218 31.04C80.8458 31.4027 80.1311 31.712 79.2778 31.968C78.4458 32.2027 77.4858 32.32 76.3978 32.32C75.3098 32.32 74.2218 32.16 73.1338 31.84C72.0458 31.52 71.0751 30.976 70.2218 30.208C69.3684 29.44 68.6751 28.4053 68.1418 27.104C67.6084 25.8027 67.3418 24.1707 67.3418 22.208C67.3418 21.504 67.3844 20.6933 67.4698 19.776C67.5764 18.8373 67.7684 17.8773 68.0458 16.896C68.3231 15.9147 68.7071 14.9547 69.1978 14.016C69.7098 13.056 70.3604 12.2027 71.1498 11.456C71.9391 10.7093 72.8991 10.112 74.0298 9.664C75.1818 9.19467 76.5471 8.96 78.1258 8.96C79.3844 8.96 80.4724 9.10933 81.3898 9.408C82.3284 9.70667 83.0964 10.1227 83.6938 10.656C84.3124 11.168 84.7604 11.776 85.0378 12.48C85.3364 13.184 85.4858 13.9307 85.4858 14.72C85.4858 16.0853 85.0804 17.088 84.2698 17.728C83.4804 18.3467 82.3498 18.656 80.8778 18.656C80.4084 18.656 80.1098 18.624 79.9818 18.56C79.8751 18.4747 79.8218 18.3147 79.8218 18.08C79.8004 17.3547 79.7791 16.7253 79.7578 16.192C79.7364 15.6587 79.6618 15.2213 79.5338 14.88C79.4058 14.5173 79.2031 14.2613 78.9258 14.112C78.6698 13.9413 78.3071 13.856 77.8378 13.856C77.1551 13.856 76.5684 14.0053 76.0778 14.304C75.6084 14.5813 75.2031 14.9547 74.8618 15.424C74.5418 15.872 74.2751 16.384 74.0618 16.96C73.8698 17.536 73.7098 18.1227 73.5818 18.72C73.4751 19.3173 73.4004 19.8933 73.3578 20.448C73.3364 21.0027 73.3258 21.4827 73.3258 21.888C73.3258 23.8507 73.6458 25.248 74.2858 26.08C74.9471 26.912 75.9604 27.328 77.3258 27.328ZM94.105 32.32C92.633 32.32 91.4063 32.1173 90.425 31.712C89.465 31.2853 88.697 30.7093 88.121 29.984C87.545 29.2587 87.1397 28.416 86.905 27.456C86.6703 26.4747 86.553 25.4293 86.553 24.32C86.553 23.04 86.7023 21.792 87.001 20.576C87.321 19.3387 87.8543 18.24 88.601 17.28C89.3477 16.32 90.329 15.552 91.545 14.976C92.7823 14.3787 94.3183 14.08 96.153 14.08C98.841 14.08 100.761 14.7413 101.913 16.064C103.086 17.3653 103.673 19.2 103.673 21.568C103.673 22.2293 103.62 22.9653 103.513 23.776C103.428 24.5653 103.246 25.3547 102.969 26.144C102.713 26.9333 102.35 27.7013 101.881 28.448C101.433 29.1947 100.857 29.856 100.153 30.432C99.449 31.008 98.5957 31.4667 97.593 31.808C96.6117 32.1493 95.449 32.32 94.105 32.32ZM95.609 18.336C94.7983 18.336 94.1477 18.5493 93.657 18.976C93.1877 19.3813 92.825 19.8827 92.569 20.48C92.3343 21.056 92.1743 21.6747 92.089 22.336C92.025 22.976 91.993 23.52 91.993 23.968C91.993 25.376 92.217 26.4107 92.665 27.072C93.113 27.7333 93.753 28.064 94.585 28.064C95.3317 28.064 95.9397 27.8293 96.409 27.36C96.8997 26.8907 97.273 26.3253 97.529 25.664C97.8063 25.0027 97.9877 24.3093 98.073 23.584C98.1797 22.8587 98.233 22.2507 98.233 21.76C98.233 20.6933 98.0303 19.8613 97.625 19.264C97.241 18.6453 96.569 18.336 95.609 18.336ZM105.102 28.064C105.102 26.144 105.966 24.64 107.694 23.552C109.422 22.464 111.971 21.8773 115.342 21.792C115.363 21.5573 115.374 21.3653 115.374 21.216C115.395 21.0453 115.406 20.8427 115.406 20.608C115.406 19.9253 115.278 19.3813 115.022 18.976C114.766 18.5707 114.233 18.368 113.422 18.368C112.974 18.368 112.611 18.432 112.334 18.56C112.057 18.688 111.833 18.8693 111.662 19.104C111.491 19.3173 111.353 19.584 111.246 19.904C111.139 20.224 111.043 20.576 110.958 20.96C110.915 21.152 110.819 21.28 110.67 21.344C110.521 21.3867 110.286 21.408 109.966 21.408C107.79 21.408 106.702 20.5867 106.702 18.944C106.702 18.2827 106.851 17.6533 107.15 17.056C107.47 16.4587 107.929 15.9467 108.526 15.52C109.145 15.072 109.913 14.72 110.83 14.464C111.747 14.208 112.814 14.08 114.03 14.08C116.398 14.08 118.115 14.5707 119.182 15.552C120.249 16.5333 120.782 17.92 120.782 19.712C120.782 19.9467 120.75 20.3733 120.686 20.992C120.643 21.5893 120.579 22.2293 120.494 22.912C120.43 23.5733 120.366 24.2027 120.302 24.8C120.259 25.3973 120.238 25.8133 120.238 26.048C120.238 26.5813 120.334 26.9653 120.526 27.2C120.718 27.4133 120.931 27.5627 121.166 27.648C121.422 27.7333 121.646 27.7973 121.838 27.84C122.03 27.8827 122.126 27.9893 122.126 28.16C122.126 28.6293 122.062 29.1093 121.934 29.6C121.806 30.0907 121.593 30.5387 121.294 30.944C121.017 31.3493 120.622 31.68 120.11 31.936C119.619 32.192 119.011 32.32 118.286 32.32C117.262 32.32 116.494 32.0747 115.982 31.584C115.47 31.0933 115.129 30.4107 114.958 29.536C114.446 30.2827 113.774 30.9333 112.942 31.488C112.131 32.0427 111.065 32.32 109.742 32.32C109.102 32.32 108.494 32.2453 107.918 32.096C107.363 31.9467 106.873 31.7013 106.446 31.36C106.041 31.0187 105.71 30.5813 105.454 30.048C105.219 29.4933 105.102 28.832 105.102 28.064ZM115.054 24.416C114.499 24.416 113.955 24.4587 113.422 24.544C112.889 24.6293 112.409 24.768 111.982 24.96C111.577 25.1307 111.246 25.3653 110.99 25.664C110.734 25.9627 110.606 26.3253 110.606 26.752C110.606 27.2427 110.755 27.584 111.054 27.776C111.374 27.968 111.715 28.064 112.078 28.064C112.419 28.064 112.761 27.9893 113.102 27.84C113.443 27.6907 113.742 27.4667 113.998 27.168C114.275 26.848 114.51 26.464 114.702 26.016C114.894 25.568 115.011 25.0347 115.054 24.416ZM132.157 28.064C132.776 28.064 133.309 27.9787 133.757 27.808C134.227 27.6373 134.632 27.4453 134.973 27.232C135.315 27.0187 135.603 26.8267 135.837 26.656C136.072 26.4853 136.285 26.4 136.477 26.4C136.968 26.4 137.213 26.72 137.213 27.36C137.213 27.5093 137.181 27.7227 137.117 28C137.053 28.256 136.968 28.5333 136.861 28.832C136.755 29.1093 136.637 29.376 136.509 29.632C136.403 29.888 136.296 30.08 136.189 30.208C136.083 30.3147 135.891 30.4853 135.613 30.72C135.357 30.9547 135.005 31.1893 134.557 31.424C134.109 31.6587 133.587 31.8613 132.989 32.032C132.392 32.224 131.731 32.32 131.005 32.32C130.195 32.32 129.352 32.2027 128.477 31.968C127.624 31.712 126.845 31.2853 126.141 30.688C125.437 30.0693 124.851 29.248 124.381 28.224C123.933 27.1787 123.709 25.8773 123.709 24.32C123.709 23.7653 123.741 23.136 123.805 22.432C123.891 21.7067 124.051 20.9707 124.285 20.224C124.52 19.456 124.829 18.7093 125.213 17.984C125.619 17.2373 126.152 16.576 126.813 16C127.475 15.424 128.264 14.9653 129.181 14.624C130.12 14.2613 131.229 14.08 132.509 14.08C133.555 14.08 134.451 14.208 135.197 14.464C135.965 14.6987 136.595 15.0293 137.085 15.456C137.576 15.8613 137.939 16.3413 138.173 16.896C138.429 17.4507 138.557 18.048 138.557 18.688C138.557 19.84 138.195 20.6933 137.469 21.248C136.744 21.7813 135.72 22.048 134.397 22.048C134.077 22.048 133.853 22.0267 133.725 21.984C133.619 21.92 133.565 21.792 133.565 21.6C133.565 21.088 133.555 20.6293 133.533 20.224C133.512 19.8187 133.448 19.4773 133.341 19.2C133.256 18.9227 133.117 18.7093 132.925 18.56C132.733 18.4107 132.456 18.336 132.093 18.336C131.432 18.336 130.899 18.5493 130.493 18.976C130.109 19.4027 129.811 19.9253 129.597 20.544C129.405 21.1413 129.277 21.76 129.213 22.4C129.171 23.04 129.149 23.5733 129.149 24C129.149 25.5147 129.384 26.5707 129.853 27.168C130.344 27.7653 131.112 28.064 132.157 28.064ZM150.967 28.032C151.031 27.328 151.095 26.592 151.159 25.824C151.245 25.056 151.309 24.32 151.351 23.616C151.415 22.912 151.469 22.2827 151.511 21.728C151.554 21.1733 151.575 20.768 151.575 20.512C151.575 19.9573 151.437 19.4667 151.159 19.04C150.903 18.592 150.391 18.368 149.623 18.368C148.599 18.368 147.767 18.848 147.127 19.808C146.509 20.768 146.146 22.048 146.039 23.648C145.997 24.096 145.943 24.7253 145.879 25.536C145.815 26.3253 145.751 27.136 145.687 27.968C145.623 28.7787 145.559 29.5147 145.495 30.176C145.453 30.816 145.431 31.2107 145.431 31.36C145.431 31.616 145.378 31.7867 145.271 31.872C145.186 31.9573 145.005 32 144.727 32H143.575C142.914 32 142.37 31.936 141.943 31.808C141.538 31.6587 141.207 31.456 140.951 31.2C140.717 30.944 140.546 30.6347 140.439 30.272C140.354 29.888 140.311 29.4507 140.311 28.96C140.311 28.4907 140.343 27.84 140.407 27.008C140.493 26.1547 140.599 24.992 140.727 23.52C140.855 22.0267 141.005 20.128 141.175 17.824C141.346 15.52 141.527 12.6613 141.719 9.248C141.741 8.77867 141.794 8.50133 141.879 8.416C141.943 8.352 142.114 8.32 142.391 8.32H143.639C144.279 8.32 144.813 8.39467 145.239 8.544C145.666 8.69333 146.007 8.896 146.263 9.152C146.519 9.408 146.701 9.70667 146.807 10.048C146.914 10.368 146.967 10.7093 146.967 11.072C146.967 11.456 146.925 12.1707 146.839 13.216C146.775 14.2613 146.69 15.488 146.583 16.896C147.223 15.8293 147.927 15.0933 148.695 14.688C149.485 14.2827 150.477 14.08 151.671 14.08C152.567 14.08 153.346 14.176 154.007 14.368C154.669 14.56 155.213 14.8907 155.639 15.36C156.087 15.808 156.418 16.4053 156.631 17.152C156.845 17.8773 156.951 18.784 156.951 19.872C156.951 20.2133 156.919 20.8 156.855 21.632C156.791 22.464 156.706 23.4133 156.599 24.48C156.514 25.5467 156.418 26.6667 156.311 27.84C156.226 28.992 156.151 30.048 156.087 31.008C156.066 31.2427 156.045 31.424 156.023 31.552C156.002 31.68 155.959 31.776 155.895 31.84C155.853 31.904 155.778 31.9467 155.671 31.968C155.565 31.9893 155.415 32 155.223 32H154.199C153.517 32 152.962 31.936 152.535 31.808C152.109 31.68 151.778 31.4987 151.543 31.264C151.309 31.0293 151.138 30.7413 151.031 30.4C150.946 30.0373 150.903 29.632 150.903 29.184C150.903 28.9707 150.903 28.768 150.903 28.576C150.925 28.384 150.946 28.2027 150.967 28.032Z" fill="#5CADDC"/>
</svg>
