<svg width="22" height="22" viewBox="0 0 22 22" fill="none" xmlns="http://www.w3.org/2000/svg">
<path fill-rule="evenodd" clip-rule="evenodd" d="M11 0C10.1716 0 9.5 0.671573 9.5 1.5V9.5H1.5C0.671573 9.5 0 10.1716 0 11C0 11.8284 0.671573 12.5 1.5 12.5H9.5V20.5C9.5 21.3284 10.1716 22 11 22C11.8284 22 12.5 21.3284 12.5 20.5V12.5H20.5C21.3284 12.5 22 11.8284 22 11C22 10.1716 21.3284 9.5 20.5 9.5H12.5V1.5C12.5 0.671573 11.8284 0 11 0Z" fill="#4D4D4D" style="mix-blend-mode:color-burn"/>
<path fill-rule="evenodd" clip-rule="evenodd" d="M11 0C10.1716 0 9.5 0.671573 9.5 1.5V9.5H1.5C0.671573 9.5 0 10.1716 0 11C0 11.8284 0.671573 12.5 1.5 12.5H9.5V20.5C9.5 21.3284 10.1716 22 11 22C11.8284 22 12.5 21.3284 12.5 20.5V12.5H20.5C21.3284 12.5 22 11.8284 22 11C22 10.1716 21.3284 9.5 20.5 9.5H12.5V1.5C12.5 0.671573 11.8284 0 11 0Z" fill="#717171"/>
</svg>
